<svg version="1.1" viewBox="0.0 0.0 623.0 231.3989501312336" fill="none" stroke="none" stroke-linecap="square" stroke-miterlimit="10" xmlns:xlink="http://www.w3.org/1999/xlink" xmlns="http://www.w3.org/2000/svg"><clipPath id="p.0"><path d="m0 0l623.0 0l0 231.39896l-623.0 0l0 -231.39896z" clip-rule="nonzero"/></clipPath><g clip-path="url(#p.0)"><path fill="#000000" fill-opacity="0.0" d="m0 0l623.0 0l0 231.39896l-623.0 0z" fill-rule="evenodd"/><path fill="#666666" d="m95.99049 121.00787l46.507202 0c0.13113403 0 0.25689697 0.052093506 0.34960938 0.14481354c0.09272766 0.09272766 0.14482117 0.2184906 0.14482117 0.34962463l0 23.253593l0 0c0 13.115677 -10.632355 23.748032 -23.748032 23.748032l0 0l0 0c-13.115677 0 -23.748032 -10.632355 -23.748032 -23.748032l0 -23.253593l0 0c0 -0.2730713 0.22136688 -0.49443817 0.49443054 -0.49443817z" fill-rule="evenodd"/><path stroke="#000000" stroke-width="1.0" stroke-linejoin="round" stroke-linecap="butt" d="m95.99049 121.00787l46.507202 0c0.13113403 0 0.25689697 0.052093506 0.34960938 0.14481354c0.09272766 0.09272766 0.14482117 0.2184906 0.14482117 0.34962463l0 23.253593l0 0c0 13.115677 -10.632355 23.748032 -23.748032 23.748032l0 0l0 0c-13.115677 0 -23.748032 -10.632355 -23.748032 -23.748032l0 -23.253593l0 0c0 -0.2730713 0.22136688 -0.49443817 0.49443054 -0.49443817z" fill-rule="evenodd"/><path fill="#efefef" d="m113.89825 148.27054l0 -13.359375l2.703125 0l0 5.9375l5.4375 -5.9375l3.625 0l-5.015625 5.203125l5.296875 8.15625l-3.484375 0l-3.671875 -6.265625l-2.1875 2.234375l0 4.03125l-2.703125 0z" fill-rule="nonzero"/><path fill="#666666" d="m95.49606 64.50394l47.496063 0l0 48.503937l-47.496063 0z" fill-rule="evenodd"/><path stroke="#000000" stroke-width="1.0" stroke-linejoin="round" stroke-linecap="butt" d="m95.49606 64.50394l47.496063 0l0 48.503937l-47.496063 0z" fill-rule="evenodd"/><path fill="#efefef" d="m117.90548 95.6759l0 -11.09375l-3.953125 0l0 -2.265625l10.609375 0l0 2.265625l-3.953125 0l0 11.09375l-2.703125 0z" fill-rule="nonzero"/><path fill="#666666" d="m152.49443 121.50787l46.507202 0c0.13113403 0 0.25689697 0.052093506 0.34960938 0.14481354c0.09272766 0.09272766 0.14482117 0.2184906 0.14482117 0.34962463l0 23.253593l0 0c0 13.115677 -10.632355 23.748032 -23.748032 23.748032l0 0l0 0c-13.115677 0 -23.748032 -10.632355 -23.748032 -23.748032l0 -23.253593l0 0c0 -0.2730713 0.22135925 -0.49443817 0.49443054 -0.49443817z" fill-rule="evenodd"/><path stroke="#000000" stroke-width="1.0" stroke-linejoin="round" stroke-linecap="butt" d="m152.49443 121.50787l46.507202 0c0.13113403 0 0.25689697 0.052093506 0.34960938 0.14481354c0.09272766 0.09272766 0.14482117 0.2184906 0.14482117 0.34962463l0 23.253593l0 0c0 13.115677 -10.632355 23.748032 -23.748032 23.748032l0 0l0 0c-13.115677 0 -23.748032 -10.632355 -23.748032 -23.748032l0 -23.253593l0 0c0 -0.2730713 0.22135925 -0.49443817 0.49443054 -0.49443817z" fill-rule="evenodd"/><path fill="#efefef" d="m171.20557 148.77054l-3.1875 -13.359375l2.765625 0l2.015625 9.171875l2.4375 -9.171875l3.203125 0l2.34375 9.328125l2.046875 -9.328125l2.71875 0l-3.25 13.359375l-2.859375 0l-2.65625 -9.984375l-2.65625 9.984375l-2.921875 0z" fill-rule="nonzero"/><path fill="#666666" d="m152.0 65.00394l47.496063 0l0 48.503937l-47.496063 0z" fill-rule="evenodd"/><path stroke="#000000" stroke-width="1.0" stroke-linejoin="round" stroke-linecap="butt" d="m152.0 65.00394l47.496063 0l0 48.503937l-47.496063 0z" fill-rule="evenodd"/><path fill="#efefef" d="m170.88562 96.1759l0 -13.359375l4.328125 0q2.453125 0 3.203125 0.203125q1.140625 0.296875 1.921875 1.3125q0.78125 1.0 0.78125 2.59375q0 1.234375 -0.453125 2.078125q-0.453125 0.828125 -1.140625 1.3125q-0.6875 0.46875 -1.390625 0.625q-0.96875 0.203125 -2.796875 0.203125l-1.765625 0l0 5.03125l-2.6875 0zm2.6875 -11.09375l0 3.78125l1.484375 0q1.59375 0 2.125 -0.203125q0.546875 -0.203125 0.84375 -0.65625q0.3125 -0.453125 0.3125 -1.03125q0 -0.734375 -0.4375 -1.203125q-0.421875 -0.484375 -1.078125 -0.59375q-0.484375 -0.09375 -1.9375 -0.09375l-1.3125 0z" fill-rule="nonzero"/><path fill="#666666" d="m207.9905 121.50787l46.507202 0c0.13113403 0 0.25689697 0.052093506 0.34960938 0.14481354c0.09272766 0.09272766 0.14482117 0.2184906 0.14482117 0.34962463l0 23.253593l0 0c0 13.115677 -10.632355 23.748032 -23.748032 23.748032l0 0l0 0c-13.115677 0 -23.748032 -10.632355 -23.748032 -23.748032l0 -23.253593l0 0c0 -0.2730713 0.22135925 -0.49443817 0.49443054 -0.49443817z" fill-rule="evenodd"/><path stroke="#000000" stroke-width="1.0" stroke-linejoin="round" stroke-linecap="butt" d="m207.9905 121.50787l46.507202 0c0.13113403 0 0.25689697 0.052093506 0.34960938 0.14481354c0.09272766 0.09272766 0.14482117 0.2184906 0.14482117 0.34962463l0 23.253593l0 0c0 13.115677 -10.632355 23.748032 -23.748032 23.748032l0 0l0 0c-13.115677 0 -23.748032 -10.632355 -23.748032 -23.748032l0 -23.253593l0 0c0 -0.2730713 0.22135925 -0.49443817 0.49443054 -0.49443817z" fill-rule="evenodd"/><path fill="#efefef" d="m225.867 148.77054l0 -13.359375l5.6875 0q2.140625 0 3.109375 0.359375q0.96875 0.359375 1.546875 1.28125q0.578125 0.921875 0.578125 2.109375q0 1.5 -0.890625 2.484375q-0.875 0.96875 -2.625 1.234375q0.875 0.5 1.4375 1.125q0.578125 0.609375 1.53125 2.15625l1.640625 2.609375l-3.234375 0l-1.9375 -2.90625q-1.046875 -1.5625 -1.4375 -1.96875q-0.375 -0.40625 -0.8125 -0.546875q-0.421875 -0.15625 -1.34375 -0.15625l-0.546875 0l0 5.578125l-2.703125 0zm2.703125 -7.703125l2.0 0q1.9375 0 2.421875 -0.15625q0.484375 -0.171875 0.75 -0.578125q0.28125 -0.40625 0.28125 -1.0q0 -0.671875 -0.359375 -1.078125q-0.359375 -0.421875 -1.015625 -0.53125q-0.328125 -0.046875 -1.96875 -0.046875l-2.109375 0l0 3.390625z" fill-rule="nonzero"/><path fill="#666666" d="m207.49606 65.00394l47.496063 0l0 48.503937l-47.496063 0z" fill-rule="evenodd"/><path stroke="#000000" stroke-width="1.0" stroke-linejoin="round" stroke-linecap="butt" d="m207.49606 65.00394l47.496063 0l0 48.503937l-47.496063 0z" fill-rule="evenodd"/><path fill="#efefef" d="m225.86699 96.1759l0 -13.359375l2.703125 0l0 5.265625l5.28125 0l0 -5.265625l2.703125 0l0 13.359375l-2.703125 0l0 -5.84375l-5.28125 0l0 5.84375l-2.703125 0z" fill-rule="nonzero"/><path fill="#666666" d="m319.9905 121.50787l46.50717 0c0.13113403 0 0.25689697 0.052093506 0.3496399 0.14481354c0.0927124 0.09272766 0.14480591 0.2184906 0.14480591 0.34962463l0 23.253593l0 0c0 13.115677 -10.632355 23.748032 -23.748016 23.748032l0 0l0 0c-13.115692 0 -23.748047 -10.632355 -23.748047 -23.748032l0 -23.253593l0 0c0 -0.2730713 0.22137451 -0.49443817 0.4944458 -0.49443817z" fill-rule="evenodd"/><path stroke="#000000" stroke-width="1.0" stroke-linejoin="round" stroke-linecap="butt" d="m319.9905 121.50787l46.50717 0c0.13113403 0 0.25689697 0.052093506 0.3496399 0.14481354c0.0927124 0.09272766 0.14480591 0.2184906 0.14480591 0.34962463l0 23.253593l0 0c0 13.115677 -10.632355 23.748032 -23.748016 23.748032l0 0l0 0c-13.115692 0 -23.748047 -10.632355 -23.748047 -23.748032l0 -23.253593l0 0c0 -0.2730713 0.22137451 -0.49443817 0.4944458 -0.49443817z" fill-rule="evenodd"/><path fill="#efefef" d="m337.867 148.77054l0 -13.359375l5.6875 0q2.140625 0 3.109375 0.359375q0.96875 0.359375 1.546875 1.28125q0.578125 0.921875 0.578125 2.109375q0 1.5 -0.890625 2.484375q-0.875 0.96875 -2.625 1.234375q0.875 0.5 1.4375 1.125q0.578125 0.609375 1.53125 2.15625l1.640625 2.609375l-3.234375 0l-1.9375 -2.90625q-1.046875 -1.5625 -1.4375 -1.96875q-0.375 -0.40625 -0.8125 -0.546875q-0.421875 -0.15625 -1.34375 -0.15625l-0.546875 0l0 5.578125l-2.703125 0zm2.703125 -7.703125l2.0 0q1.9375 0 2.421875 -0.15625q0.484375 -0.171875 0.75 -0.578125q0.28125 -0.40625 0.28125 -1.0q0 -0.671875 -0.359375 -1.078125q-0.359375 -0.421875 -1.015625 -0.53125q-0.328125 -0.046875 -1.96875 -0.046875l-2.109375 0l0 3.390625z" fill-rule="nonzero"/><path fill="#666666" d="m319.49606 65.00394l47.496063 0l0 48.503937l-47.496063 0z" fill-rule="evenodd"/><path stroke="#000000" stroke-width="1.0" stroke-linejoin="round" stroke-linecap="butt" d="m319.49606 65.00394l47.496063 0l0 48.503937l-47.496063 0z" fill-rule="evenodd"/><path fill="#efefef" d="m338.9211 96.1759l0 -13.359375l9.15625 0l0 2.265625l-6.453125 0l0 3.15625l5.5625 0l0 2.265625l-5.5625 0l0 5.671875l-2.703125 0z" fill-rule="nonzero"/><path fill="#666666" d="m375.48657 121.00787l46.50717 0c0.13113403 0 0.25689697 0.052093506 0.3496399 0.14481354c0.0927124 0.09272766 0.14480591 0.2184906 0.14480591 0.34962463l0 23.253593l0 0c0 13.115677 -10.632355 23.748032 -23.748016 23.748032l0 0l0 0c-13.115692 0 -23.748047 -10.632355 -23.748047 -23.748032l0 -23.253593l0 0c0 -0.2730713 0.22137451 -0.49443817 0.4944458 -0.49443817z" fill-rule="evenodd"/><path stroke="#000000" stroke-width="1.0" stroke-linejoin="round" stroke-linecap="butt" d="m375.48657 121.00787l46.50717 0c0.13113403 0 0.25689697 0.052093506 0.3496399 0.14481354c0.0927124 0.09272766 0.14480591 0.2184906 0.14480591 0.34962463l0 23.253593l0 0c0 13.115677 -10.632355 23.748032 -23.748016 23.748032l0 0l0 0c-13.115692 0 -23.748047 -10.632355 -23.748047 -23.748032l0 -23.253593l0 0c0 -0.2730713 0.22137451 -0.49443817 0.4944458 -0.49443817z" fill-rule="evenodd"/><path fill="#efefef" d="m393.36307 134.91116l5.34375 0q1.59375 0 2.359375 0.140625q0.78125 0.125 1.390625 0.546875q0.625 0.421875 1.03125 1.125q0.40625 0.6875 0.40625 1.546875q0 0.9375 -0.5 1.734375q-0.5 0.78125 -1.375 1.171875q1.21875 0.359375 1.875 1.21875q0.65625 0.84375 0.65625 2.0q0 0.921875 -0.421875 1.78125q-0.421875 0.859375 -1.15625 1.375q-0.734375 0.515625 -1.796875 0.625q-0.6875 0.078125 -3.265625 0.09375l-4.546875 0l0 -13.359375zm2.703125 2.234375l0 3.078125l1.765625 0q1.578125 0 1.953125 -0.046875q0.703125 -0.078125 1.09375 -0.46875q0.40625 -0.40625 0.40625 -1.046875q0 -0.625 -0.34375 -1.0q-0.34375 -0.390625 -1.015625 -0.484375q-0.40625 -0.03125 -2.3125 -0.03125l-1.546875 0zm0 5.296875l0 3.578125l2.5 0q1.453125 0 1.84375 -0.078125q0.609375 -0.109375 0.984375 -0.53125q0.375 -0.421875 0.375 -1.140625q0 -0.59375 -0.296875 -1.015625q-0.28125 -0.421875 -0.84375 -0.609375q-0.546875 -0.203125 -2.390625 -0.203125l-2.171875 0z" fill-rule="nonzero"/><path fill="#666666" d="m374.99213 64.50394l47.496063 0l0 48.503937l-47.496063 0z" fill-rule="evenodd"/><path stroke="#000000" stroke-width="1.0" stroke-linejoin="round" stroke-linecap="butt" d="m374.99213 64.50394l47.496063 0l0 48.503937l-47.496063 0z" fill-rule="evenodd"/><path fill="#efefef" d="m393.87775 95.6759l0 -13.359375l4.328125 0q2.453125 0 3.203125 0.203125q1.140625 0.296875 1.921875 1.3125q0.78125 1.0 0.78125 2.59375q0 1.234375 -0.453125 2.078125q-0.453125 0.828125 -1.140625 1.3125q-0.6875 0.46875 -1.390625 0.625q-0.96875 0.203125 -2.796875 0.203125l-1.765625 0l0 5.03125l-2.6875 0zm2.6875 -11.09375l0 3.78125l1.484375 0q1.59375 0 2.125 -0.203125q0.546875 -0.203125 0.84375 -0.65625q0.3125 -0.453125 0.3125 -1.03125q0 -0.734375 -0.4375 -1.203125q-0.421875 -0.484375 -1.078125 -0.59375q-0.484375 -0.09375 -1.9375 -0.09375l-1.3125 0z" fill-rule="nonzero"/><path fill="#666666" d="m431.9905 121.50787l46.50717 0c0.13113403 0 0.25689697 0.052093506 0.3496399 0.14481354c0.0927124 0.09272766 0.14480591 0.2184906 0.14480591 0.34962463l0 23.253593l0 0c0 13.115677 -10.632355 23.748032 -23.748016 23.748032l0 0l0 0c-13.115692 0 -23.748047 -10.632355 -23.748047 -23.748032l0 -23.253593l0 0c0 -0.2730713 0.22137451 -0.49443817 0.4944458 -0.49443817z" fill-rule="evenodd"/><path stroke="#000000" stroke-width="1.0" stroke-linejoin="round" stroke-linecap="butt" d="m431.9905 121.50787l46.50717 0c0.13113403 0 0.25689697 0.052093506 0.3496399 0.14481354c0.0927124 0.09272766 0.14480591 0.2184906 0.14480591 0.34962463l0 23.253593l0 0c0 13.115677 -10.632355 23.748032 -23.748016 23.748032l0 0l0 0c-13.115692 0 -23.748047 -10.632355 -23.748047 -23.748032l0 -23.253593l0 0c0 -0.2730713 0.22137451 -0.49443817 0.4944458 -0.49443817z" fill-rule="evenodd"/><path fill="#efefef" d="m455.55087 143.86429l0 -2.25l5.8125 0l0 5.3125q-0.84375 0.828125 -2.453125 1.453125q-1.609375 0.625 -3.25 0.625q-2.09375 0 -3.65625 -0.875q-1.5625 -0.890625 -2.34375 -2.515625q-0.78125 -1.640625 -0.78125 -3.5625q0 -2.09375 0.875 -3.703125q0.875 -1.625 2.5625 -2.5q1.28125 -0.65625 3.203125 -0.65625q2.484375 0 3.875 1.046875q1.40625 1.03125 1.796875 2.875l-2.671875 0.5q-0.28125 -0.984375 -1.0625 -1.546875q-0.78125 -0.578125 -1.9375 -0.578125q-1.78125 0 -2.828125 1.125q-1.03125 1.125 -1.03125 3.328125q0 2.375 1.046875 3.5625q1.0625 1.1875 2.78125 1.1875q0.84375 0 1.6875 -0.328125q0.859375 -0.328125 1.46875 -0.8125l0 -1.6875l-3.09375 0z" fill-rule="nonzero"/><path fill="#666666" d="m431.49606 65.00394l47.496063 0l0 48.503937l-47.496063 0z" fill-rule="evenodd"/><path stroke="#000000" stroke-width="1.0" stroke-linejoin="round" stroke-linecap="butt" d="m431.49606 65.00394l47.496063 0l0 48.503937l-47.496063 0z" fill-rule="evenodd"/><path fill="#efefef" d="m450.9836 96.1759l0 -13.25l2.6875 0l0 11.0l6.703125 0l0 2.25l-9.390625 0z" fill-rule="nonzero"/><path fill="#666666" d="m487.48657 121.50787l46.507202 0c0.13110352 0 0.25689697 0.052093506 0.34960938 0.14481354c0.0927124 0.09272766 0.14483643 0.2184906 0.14483643 0.34962463l0 23.253593l0 0c0 13.115677 -10.632385 23.748032 -23.748047 23.748032l0 0l0 0c-13.115692 0 -23.748047 -10.632355 -23.748047 -23.748032l0 -23.253593l0 0c0 -0.2730713 0.22137451 -0.49443817 0.4944458 -0.49443817z" fill-rule="evenodd"/><path stroke="#000000" stroke-width="1.0" stroke-linejoin="round" stroke-linecap="butt" d="m487.48657 121.50787l46.507202 0c0.13110352 0 0.25689697 0.052093506 0.34960938 0.14481354c0.0927124 0.09272766 0.14483643 0.2184906 0.14483643 0.34962463l0 23.253593l0 0c0 13.115677 -10.632385 23.748032 -23.748047 23.748032l0 0l0 0c-13.115692 0 -23.748047 -10.632355 -23.748047 -23.748032l0 -23.253593l0 0c0 -0.2730713 0.22137451 -0.49443817 0.4944458 -0.49443817z" fill-rule="evenodd"/><path fill="#efefef" d="m505.19025 144.42679l2.625 -0.25q0.234375 1.3125 0.953125 1.9375q0.734375 0.609375 1.96875 0.609375q1.296875 0 1.953125 -0.546875q0.671875 -0.546875 0.671875 -1.28125q0 -0.484375 -0.28125 -0.8125q-0.28125 -0.328125 -0.96875 -0.578125q-0.484375 -0.15625 -2.171875 -0.578125q-2.15625 -0.546875 -3.03125 -1.328125q-1.234375 -1.09375 -1.234375 -2.6875q0 -1.015625 0.578125 -1.90625q0.578125 -0.890625 1.65625 -1.34375q1.09375 -0.46875 2.640625 -0.46875q2.515625 0 3.78125 1.109375q1.28125 1.09375 1.34375 2.9375l-2.703125 0.109375q-0.171875 -1.03125 -0.75 -1.46875q-0.5625 -0.453125 -1.703125 -0.453125q-1.171875 0 -1.84375 0.46875q-0.421875 0.3125 -0.421875 0.84375q0 0.46875 0.40625 0.796875q0.5 0.4375 2.46875 0.90625q1.96875 0.453125 2.90625 0.953125q0.953125 0.5 1.484375 1.359375q0.53125 0.859375 0.53125 2.125q0 1.15625 -0.640625 2.15625q-0.640625 1.0 -1.8125 1.484375q-1.15625 0.484375 -2.890625 0.484375q-2.53125 0 -3.890625 -1.171875q-1.359375 -1.171875 -1.625 -3.40625z" fill-rule="nonzero"/><path fill="#666666" d="m486.99213 65.00394l47.496094 0l0 48.503937l-47.496094 0z" fill-rule="evenodd"/><path stroke="#000000" stroke-width="1.0" stroke-linejoin="round" stroke-linecap="butt" d="m486.99213 65.00394l47.496094 0l0 48.503937l-47.496094 0z" fill-rule="evenodd"/><path fill="#efefef" d="m509.40155 96.1759l0 -11.09375l-3.953125 0l0 -2.265625l10.609375 0l0 2.265625l-3.953125 0l0 11.09375l-2.703125 0z" fill-rule="nonzero"/><path fill="#666666" d="m543.9905 121.50787l46.507202 0c0.13116455 0 0.25689697 0.052093506 0.34960938 0.14481354c0.09277344 0.09272766 0.14483643 0.2184906 0.14483643 0.34962463l0 23.253593l0 0c0 13.115677 -10.632385 23.748032 -23.748047 23.748032l0 0l0 0c-13.115662 0 -23.748047 -10.632355 -23.748047 -23.748032l0 -23.253593l0 0c0 -0.2730713 0.22137451 -0.49443817 0.4944458 -0.49443817z" fill-rule="evenodd"/><path stroke="#000000" stroke-width="1.0" stroke-linejoin="round" stroke-linecap="butt" d="m543.9905 121.50787l46.507202 0c0.13116455 0 0.25689697 0.052093506 0.34960938 0.14481354c0.09277344 0.09272766 0.14483643 0.2184906 0.14483643 0.34962463l0 23.253593l0 0c0 13.115677 -10.632385 23.748032 -23.748047 23.748032l0 0l0 0c-13.115662 0 -23.748047 -10.632355 -23.748047 -23.748032l0 -23.253593l0 0c0 -0.2730713 0.22137451 -0.49443817 0.4944458 -0.49443817z" fill-rule="evenodd"/><path fill="#efefef" d="m561.7492 148.77054l0 -2.4375l7.015625 -8.65625l-6.21875 0l0 -2.265625l9.765625 0l0 2.09375l-7.3125 9.015625l7.59375 0l0 2.25l-10.84375 0z" fill-rule="nonzero"/><path fill="#666666" d="m543.49603 65.00394l47.496094 0l0 48.503937l-47.496094 0z" fill-rule="evenodd"/><path stroke="#000000" stroke-width="1.0" stroke-linejoin="round" stroke-linecap="butt" d="m543.49603 65.00394l47.496094 0l0 48.503937l-47.496094 0z" fill-rule="evenodd"/><path fill="#efefef" d="m561.8514 82.81653l4.9375 0q1.65625 0 2.53125 0.265625q1.1875 0.34375 2.015625 1.234375q0.84375 0.875 1.28125 2.15625q0.4375 1.28125 0.4375 3.15625q0 1.640625 -0.40625 2.84375q-0.5 1.453125 -1.4375 2.359375q-0.703125 0.671875 -1.890625 1.0625q-0.890625 0.28125 -2.390625 0.28125l-5.078125 0l0 -13.359375zm2.703125 2.265625l0 8.84375l2.015625 0q1.125 0 1.625 -0.125q0.65625 -0.171875 1.078125 -0.5625q0.4375 -0.390625 0.703125 -1.28125q0.28125 -0.90625 0.28125 -2.453125q0 -1.546875 -0.28125 -2.375q-0.265625 -0.828125 -0.765625 -1.28125q-0.484375 -0.46875 -1.234375 -0.640625q-0.5625 -0.125 -2.21875 -0.125l-1.203125 0z" fill-rule="nonzero"/><path fill="#666666" d="m263.9905 65.00394l46.50717 0c0.13113403 0 0.25689697 0.052093506 0.3496399 0.14481354c0.0927124 0.09272766 0.14480591 0.2184906 0.14480591 0.349617l0 79.75754c0 13.115677 -10.632355 23.748032 -23.748016 23.748032l0 0l0 0c-13.115692 0 -23.748047 -10.632355 -23.748047 -23.748032l0 -79.75754l0 0c0 -0.27306366 0.22137451 -0.49443054 0.4944458 -0.49443054z" fill-rule="evenodd"/><path stroke="#000000" stroke-width="1.0" stroke-linejoin="round" stroke-linecap="butt" d="m263.9905 65.00394l46.50717 0c0.13113403 0 0.25689697 0.052093506 0.3496399 0.14481354c0.0927124 0.09272766 0.14480591 0.2184906 0.14480591 0.349617l0 79.75754c0 13.115677 -10.632355 23.748032 -23.748016 23.748032l0 0l0 0c-13.115692 0 -23.748047 -10.632355 -23.748047 -23.748032l0 -79.75754l0 0c0 -0.27306366 0.22137451 -0.49443054 0.4944458 -0.49443054z" fill-rule="evenodd"/><path fill="#efefef" d="m284.84567 112.94356l-2.359375 -1.828125q1.125 -1.265625 2.34375 -2.421875q0.484375 -0.46875 0.609375 -0.59375q-0.390625 -0.0625 -2.234375 -0.515625q-1.328125 -0.328125 -1.75 -0.484375l0.921875 -2.75q2.046875 0.828125 3.65625 1.828125q-0.375 -2.546875 -0.375 -4.15625l2.78125 0q0 1.140625 -0.421875 4.1875q0.3125 -0.125 1.34375 -0.609375q1.40625 -0.640625 2.59375 -1.09375l0.828125 2.828125q-1.734375 0.390625 -4.015625 0.765625l1.875 2.109375q0.5625 0.640625 0.890625 1.046875l-2.390625 1.578125l-2.109375 -3.484375q-0.953125 1.6875 -2.1875 3.59375z" fill-rule="nonzero"/><path fill="#666666" d="m39.990498 65.00394l46.5072 0c0.1311264 0 0.25688934 0.052093506 0.349617 0.14481354c0.09272003 0.09272766 0.14481354 0.2184906 0.14481354 0.349617l0 79.75754c0 13.115677 -10.632355 23.748032 -23.748032 23.748032l0 0l0 0c-13.115677 0 -23.748032 -10.632355 -23.748032 -23.748032l0 -79.75754l0 0c0 -0.27306366 0.22136688 -0.49443054 0.49443436 -0.49443054z" fill-rule="evenodd"/><path stroke="#000000" stroke-width="1.0" stroke-linejoin="round" stroke-linecap="butt" d="m39.990498 65.00394l46.5072 0c0.1311264 0 0.25688934 0.052093506 0.349617 0.14481354c0.09272003 0.09272766 0.14481354 0.2184906 0.14481354 0.349617l0 79.75754c0 13.115677 -10.632355 23.748032 -23.748032 23.748032l0 0l0 0c-13.115677 0 -23.748032 -10.632355 -23.748032 -23.748032l0 -79.75754l0 0c0 -0.27306366 0.22136688 -0.49443054 0.49443436 -0.49443054z" fill-rule="evenodd"/><path fill="#efefef" d="m57.694183 116.17481l2.625 -0.25q0.234375 1.3125 0.953125 1.9375q0.734375 0.609375 1.96875 0.609375q1.296875 0 1.953125 -0.546875q0.671875 -0.546875 0.671875 -1.28125q0 -0.484375 -0.28125 -0.8125q-0.28125 -0.328125 -0.96875 -0.578125q-0.484375 -0.15625 -2.171875 -0.578125q-2.15625 -0.546875 -3.03125 -1.328125q-1.234375 -1.09375 -1.234375 -2.6875q0 -1.015625 0.578125 -1.90625q0.578125 -0.890625 1.65625 -1.34375q1.09375 -0.46875 2.640625 -0.46875q2.515625 0 3.78125 1.109375q1.28125 1.09375 1.34375 2.9375l-2.703125 0.109375q-0.171875 -1.03125 -0.75 -1.46875q-0.5625 -0.453125 -1.703125 -0.453125q-1.171875 0 -1.84375 0.46875q-0.421875 0.3125 -0.421875 0.84375q0 0.46875 0.40625 0.796875q0.5 0.4375 2.46875 0.90625q1.96875 0.453125 2.90625 0.953125q0.953125 0.5 1.484375 1.359375q0.53125 0.859375 0.53125 2.125q0 1.15625 -0.640625 2.15625q-0.640625 1.0 -1.8125 1.484375q-1.15625 0.484375 -2.890625 0.484375q-2.53125 0 -3.890625 -1.171875q-1.359375 -1.171875 -1.625 -3.40625z" fill-rule="nonzero"/><path fill="#666666" d="m175.9905 177.00787l46.507202 0c0.13113403 0 0.25689697 0.052093506 0.34960938 0.14482117c0.09272766 0.09272766 0.14482117 0.21847534 0.14482117 0.34960938l0 23.253601l0 0c0 13.115677 -10.632355 23.748032 -23.748032 23.748032l0 0l0 0c-13.115677 0 -23.748032 -10.632355 -23.748032 -23.748032l0 -23.253601l0 0c0 -0.2730713 0.22135925 -0.49443054 0.49443054 -0.49443054z" fill-rule="evenodd"/><path stroke="#000000" stroke-width="1.0" stroke-linejoin="round" stroke-linecap="butt" d="m175.9905 177.00787l46.507202 0c0.13113403 0 0.25689697 0.052093506 0.34960938 0.14482117c0.09272766 0.09272766 0.14482117 0.21847534 0.14482117 0.34960938l0 23.253601l0 0c0 13.115677 -10.632355 23.748032 -23.748032 23.748032l0 0l0 0c-13.115677 0 -23.748032 -10.632355 -23.748032 -23.748032l0 -23.253601l0 0c0 -0.2730713 0.22135925 -0.49443054 0.49443054 -0.49443054z" fill-rule="evenodd"/><path fill="#efefef" d="m205.91388 204.27054l-2.9375 0l-1.171875 -3.03125l-5.328125 0l-1.109375 3.03125l-2.859375 0l5.203125 -13.359375l2.84375 0l5.359375 13.359375zm-4.96875 -5.28125l-1.84375 -4.953125l-1.796875 4.953125l3.640625 0z" fill-rule="nonzero"/><path fill="#666666" d="m232.49443 177.50787l46.507187 0c0.13113403 0 0.25689697 0.052093506 0.3496399 0.14482117c0.0927124 0.09272766 0.14480591 0.21847534 0.14480591 0.34960938l0 23.253601l0 0c0 13.115677 -10.632355 23.748032 -23.748032 23.748032l0 0l0 0c-13.115677 0 -23.748032 -10.632355 -23.748032 -23.748032l0 -23.253601l0 0c0 -0.2730713 0.22135925 -0.49443054 0.49443054 -0.49443054z" fill-rule="evenodd"/><path stroke="#000000" stroke-width="1.0" stroke-linejoin="round" stroke-linecap="butt" d="m232.49443 177.50787l46.507187 0c0.13113403 0 0.25689697 0.052093506 0.3496399 0.14482117c0.0927124 0.09272766 0.14480591 0.21847534 0.14480591 0.34960938l0 23.253601l0 0c0 13.115677 -10.632355 23.748032 -23.748032 23.748032l0 0l0 0c-13.115677 0 -23.748032 -10.632355 -23.748032 -23.748032l0 -23.253601l0 0c0 -0.2730713 0.22135925 -0.49443054 0.49443054 -0.49443054z" fill-rule="evenodd"/><path fill="#efefef" d="m249.30482 198.17679q0 -2.046875 0.609375 -3.421875q0.453125 -1.03125 1.234375 -1.828125q0.796875 -0.8125 1.734375 -1.203125q1.25 -0.53125 2.875 -0.53125q2.9531097 0 4.7187347 1.828125q1.78125 1.828125 1.78125 5.09375q0 3.234375 -1.765625 5.0625q-1.75 1.828125 -4.6874847 1.828125q-2.984375 0 -4.75 -1.8125q-1.75 -1.828125 -1.75 -5.015625zm2.78125 -0.09375q0 2.265625 1.046875 3.4375q1.046875 1.171875 2.65625 1.171875q1.6093597 0 2.6406097 -1.15625q1.046875 -1.171875 1.046875 -3.484375q0 -2.296875 -1.015625 -3.421875q-1.0 -1.140625 -2.6718597 -1.140625q-1.671875 0 -2.6875 1.15625q-1.015625 1.140625 -1.015625 3.4375z" fill-rule="nonzero"/><path fill="#666666" d="m295.9905 177.50787l46.50717 0c0.13113403 0 0.25689697 0.052093506 0.3496399 0.14482117c0.0927124 0.09272766 0.14480591 0.21847534 0.14480591 0.34960938l0 23.253601l0 0c0 13.115677 -10.632355 23.748032 -23.748016 23.748032l0 0l0 0c-13.115692 0 -23.748047 -10.632355 -23.748047 -23.748032l0 -23.253601l0 0c0 -0.2730713 0.22137451 -0.49443054 0.4944458 -0.49443054z" fill-rule="evenodd"/><path stroke="#000000" stroke-width="1.0" stroke-linejoin="round" stroke-linecap="butt" d="m295.9905 177.50787l46.50717 0c0.13113403 0 0.25689697 0.052093506 0.3496399 0.14482117c0.0927124 0.09272766 0.14480591 0.21847534 0.14480591 0.34960938l0 23.253601l0 0c0 13.115677 -10.632355 23.748032 -23.748016 23.748032l0 0l0 0c-13.115692 0 -23.748047 -10.632355 -23.748047 -23.748032l0 -23.253601l0 0c0 -0.2730713 0.22137451 -0.49443054 0.4944458 -0.49443054z" fill-rule="evenodd"/><path fill="#efefef" d="m314.38168 204.77054l0 -13.359375l9.90625 0l0 2.265625l-7.21875 0l0 2.953125l6.71875 0l0 2.25l-6.71875 0l0 3.640625l7.46875 0l0 2.25l-10.15625 0z" fill-rule="nonzero"/><path fill="#666666" d="m352.49445 177.50787l46.50717 0c0.13113403 0 0.25689697 0.052093506 0.3496399 0.14482117c0.0927124 0.09272766 0.14480591 0.21847534 0.14480591 0.34960938l0 23.253601l0 0c0 13.115677 -10.632355 23.748032 -23.748016 23.748032l0 0l0 0c-13.115692 0 -23.748047 -10.632355 -23.748047 -23.748032l0 -23.253601l0 0c0 -0.2730713 0.22137451 -0.49443054 0.4944458 -0.49443054z" fill-rule="evenodd"/><path stroke="#000000" stroke-width="1.0" stroke-linejoin="round" stroke-linecap="butt" d="m352.49445 177.50787l46.50717 0c0.13113403 0 0.25689697 0.052093506 0.3496399 0.14482117c0.0927124 0.09272766 0.14480591 0.21847534 0.14480591 0.34960938l0 23.253601l0 0c0 13.115677 -10.632355 23.748032 -23.748016 23.748032l0 0l0 0c-13.115692 0 -23.748047 -10.632355 -23.748047 -23.748032l0 -23.253601l0 0c0 -0.2730713 0.22137451 -0.49443054 0.4944458 -0.49443054z" fill-rule="evenodd"/><path fill="#efefef" d="m370.35532 191.41116l2.6875 0l0 7.234375q0 1.71875 0.109375 2.234375q0.171875 0.828125 0.8125 1.328125q0.65625 0.484375 1.78125 0.484375q1.15625 0 1.734375 -0.46875q0.59375 -0.46875 0.703125 -1.140625q0.125 -0.6875 0.125 -2.28125l0 -7.390625l2.6875 0l0 7.015625q0 2.40625 -0.21875 3.40625q-0.21875 0.984375 -0.8125 1.671875q-0.578125 0.6875 -1.5625 1.09375q-0.984375 0.40625 -2.5625 0.40625q-1.921875 0 -2.90625 -0.4375q-0.984375 -0.453125 -1.5625 -1.15625q-0.578125 -0.703125 -0.75 -1.484375q-0.265625 -1.140625 -0.265625 -3.390625l0 -7.125z" fill-rule="nonzero"/><path fill="#666666" d="m8.0 8.0l47.496063 0l0 48.503937l-47.496063 0z" fill-rule="evenodd"/><path stroke="#000000" stroke-width="1.0" stroke-linejoin="round" stroke-linecap="butt" d="m8.0 8.0l47.496063 0l0 48.503937l-47.496063 0z" fill-rule="evenodd"/><path fill="#efefef" d="m27.966423 35.84384l-1.25 0l0 -2.0l1.640625 0l0.546875 -2.6875l-2.1875 0l0 -2.015625l2.609375 0l0.71875 -3.546875l2.03125 0l-0.71875 3.546875l2.015625 0l0.703125 -3.546875l2.109375 0l-0.71875 3.546875l1.25 0l0 2.015625l-1.671875 0l-0.546875 2.6875l2.21875 0l0 2.0l-2.625 0l-0.71875 3.5625l-2.03125 0l0.703125 -3.5625l-2.015625 0l-0.734375 3.5625l-2.046875 0l0.71875 -3.5625zm3.0 -4.6875l-0.546875 2.6875l2.03125 0l0.515625 -2.6875l-2.0 0z" fill-rule="nonzero"/><path fill="#666666" d="m64.50394 8.5l47.496063 0l0 48.503937l-47.496063 0z" fill-rule="evenodd"/><path stroke="#000000" stroke-width="1.0" stroke-linejoin="round" stroke-linecap="butt" d="m64.50394 8.5l47.496063 0l0 48.503937l-47.496063 0z" fill-rule="evenodd"/><path fill="#efefef" d="m84.47036 36.34384l-1.25 0l0 -2.0l1.640625 0l0.546875 -2.6875l-2.1875 0l0 -2.015625l2.609375 0l0.71875 -3.546875l2.03125 0l-0.71875 3.546875l2.015625 0l0.703125 -3.546875l2.109375 0l-0.71875 3.546875l1.25 0l0 2.015625l-1.671875 0l-0.546875 2.6875l2.21875 0l0 2.0l-2.625 0l-0.71875 3.5625l-2.03125 0l0.703125 -3.5625l-2.015625 0l-0.734375 3.5625l-2.046875 0l0.71875 -3.5625zm3.0 -4.6875l-0.546875 2.6875l2.03125 0l0.515625 -2.6875l-2.0 0z" fill-rule="nonzero"/><path fill="#666666" d="m120.0 8.5l47.496063 0l0 48.503937l-47.496063 0z" fill-rule="evenodd"/><path stroke="#000000" stroke-width="1.0" stroke-linejoin="round" stroke-linecap="butt" d="m120.0 8.5l47.496063 0l0 48.503937l-47.496063 0z" fill-rule="evenodd"/><path fill="#efefef" d="m139.96643 36.34384l-1.25 0l0 -2.0l1.640625 0l0.546875 -2.6875l-2.1875 0l0 -2.015625l2.609375 0l0.71875 -3.546875l2.03125 0l-0.71875 3.546875l2.015625 0l0.703125 -3.546875l2.109375 0l-0.71875 3.546875l1.25 0l0 2.015625l-1.671875 0l-0.546875 2.6875l2.21875 0l0 2.0l-2.625 0l-0.71875 3.5625l-2.03125 0l0.703125 -3.5625l-2.015625 0l-0.734375 3.5625l-2.046875 0l0.71875 -3.5625zm3.0 -4.6875l-0.546875 2.6875l2.03125 0l0.515625 -2.6875l-2.0 0z" fill-rule="nonzero"/><path fill="#666666" d="m175.49606 8.0l47.496063 0l0 48.503937l-47.496063 0z" fill-rule="evenodd"/><path stroke="#000000" stroke-width="1.0" stroke-linejoin="round" stroke-linecap="butt" d="m175.49606 8.0l47.496063 0l0 48.503937l-47.496063 0z" fill-rule="evenodd"/><path fill="#efefef" d="m195.46248 35.84384l-1.25 0l0 -2.0l1.640625 0l0.546875 -2.6875l-2.1875 0l0 -2.015625l2.609375 0l0.71875 -3.546875l2.03125 0l-0.71875 3.546875l2.015625 0l0.703125 -3.546875l2.109375 0l-0.71875 3.546875l1.25 0l0 2.015625l-1.671875 0l-0.546875 2.6875l2.21875 0l0 2.0l-2.625 0l-0.71875 3.5625l-2.03125 0l0.703125 -3.5625l-2.015625 0l-0.734375 3.5625l-2.046875 0l0.71875 -3.5625zm3.0 -4.6875l-0.546875 2.6875l2.03125 0l0.515625 -2.6875l-2.0 0z" fill-rule="nonzero"/><path fill="#666666" d="m232.0 8.5l47.496063 0l0 48.503937l-47.496063 0z" fill-rule="evenodd"/><path stroke="#000000" stroke-width="1.0" stroke-linejoin="round" stroke-linecap="butt" d="m232.0 8.5l47.496063 0l0 48.503937l-47.496063 0z" fill-rule="evenodd"/><path fill="#efefef" d="m251.96643 36.34384l-1.25 0l0 -2.0l1.640625 0l0.546875 -2.6875l-2.1875 0l0 -2.015625l2.609375 0l0.71875 -3.546875l2.03125 0l-0.71875 3.546875l2.015625 0l0.703125 -3.546875l2.109375 0l-0.71875 3.546875l1.25 0l0 2.015625l-1.671875 0l-0.546875 2.6875l2.21875 0l0 2.0l-2.625 0l-0.71875 3.5625l-2.03125 0l0.703125 -3.5625l-2.015625 0l-0.734375 3.5625l-2.046875 0l0.71875 -3.5625zm3.0 -4.6875l-0.546875 2.6875l2.03125 0l0.515625 -2.6875l-2.0 0z" fill-rule="nonzero"/><path fill="#666666" d="m287.49606 8.5l47.496063 0l0 48.503937l-47.496063 0z" fill-rule="evenodd"/><path stroke="#000000" stroke-width="1.0" stroke-linejoin="round" stroke-linecap="butt" d="m287.49606 8.5l47.496063 0l0 48.503937l-47.496063 0z" fill-rule="evenodd"/><path fill="#efefef" d="m307.4625 36.34384l-1.25 0l0 -2.0l1.640625 0l0.546875 -2.6875l-2.1875 0l0 -2.015625l2.609375 0l0.71875 -3.546875l2.03125 0l-0.71875 3.546875l2.015625 0l0.703125 -3.546875l2.109375 0l-0.71875 3.546875l1.25 0l0 2.015625l-1.671875 0l-0.546875 2.6875l2.21875 0l0 2.0l-2.625 0l-0.71875 3.5625l-2.03125 0l0.703125 -3.5625l-2.015625 0l-0.734375 3.5625l-2.046875 0l0.71875 -3.5625zm3.0 -4.6875l-0.546875 2.6875l2.03125 0l0.515625 -2.6875l-2.0 0z" fill-rule="nonzero"/><path fill="#666666" d="m343.49606 8.0l47.496063 0l0 48.503937l-47.496063 0z" fill-rule="evenodd"/><path stroke="#000000" stroke-width="1.0" stroke-linejoin="round" stroke-linecap="butt" d="m343.49606 8.0l47.496063 0l0 48.503937l-47.496063 0z" fill-rule="evenodd"/><path fill="#efefef" d="m363.4625 35.84384l-1.25 0l0 -2.0l1.640625 0l0.546875 -2.6875l-2.1875 0l0 -2.015625l2.609375 0l0.71875 -3.546875l2.03125 0l-0.71875 3.546875l2.015625 0l0.703125 -3.546875l2.109375 0l-0.71875 3.546875l1.25 0l0 2.015625l-1.671875 0l-0.546875 2.6875l2.21875 0l0 2.0l-2.625 0l-0.71875 3.5625l-2.03125 0l0.703125 -3.5625l-2.015625 0l-0.734375 3.5625l-2.046875 0l0.71875 -3.5625zm3.0 -4.6875l-0.546875 2.6875l2.03125 0l0.515625 -2.6875l-2.0 0z" fill-rule="nonzero"/><path fill="#666666" d="m400.0 8.5l47.496063 0l0 48.503937l-47.496063 0z" fill-rule="evenodd"/><path stroke="#000000" stroke-width="1.0" stroke-linejoin="round" stroke-linecap="butt" d="m400.0 8.5l47.496063 0l0 48.503937l-47.496063 0z" fill-rule="evenodd"/><path fill="#efefef" d="m419.96643 36.34384l-1.25 0l0 -2.0l1.640625 0l0.546875 -2.6875l-2.1875 0l0 -2.015625l2.609375 0l0.71875 -3.546875l2.03125 0l-0.71875 3.546875l2.015625 0l0.703125 -3.546875l2.109375 0l-0.71875 3.546875l1.25 0l0 2.015625l-1.671875 0l-0.546875 2.6875l2.21875 0l0 2.0l-2.625 0l-0.71875 3.5625l-2.03125 0l0.703125 -3.5625l-2.015625 0l-0.734375 3.5625l-2.046875 0l0.71875 -3.5625zm3.0 -4.6875l-0.546875 2.6875l2.03125 0l0.515625 -2.6875l-2.0 0z" fill-rule="nonzero"/><path fill="#666666" d="m455.49606 8.5l47.496063 0l0 48.503937l-47.496063 0z" fill-rule="evenodd"/><path stroke="#000000" stroke-width="1.0" stroke-linejoin="round" stroke-linecap="butt" d="m455.49606 8.5l47.496063 0l0 48.503937l-47.496063 0z" fill-rule="evenodd"/><path fill="#efefef" d="m475.4625 36.34384l-1.25 0l0 -2.0l1.640625 0l0.546875 -2.6875l-2.1875 0l0 -2.015625l2.609375 0l0.71875 -3.546875l2.03125 0l-0.71875 3.546875l2.015625 0l0.703125 -3.546875l2.109375 0l-0.71875 3.546875l1.25 0l0 2.015625l-1.671875 0l-0.546875 2.6875l2.21875 0l0 2.0l-2.625 0l-0.71875 3.5625l-2.03125 0l0.703125 -3.5625l-2.015625 0l-0.734375 3.5625l-2.046875 0l0.71875 -3.5625zm3.0 -4.6875l-0.546875 2.6875l2.03125 0l0.515625 -2.6875l-2.0 0z" fill-rule="nonzero"/><path fill="#666666" d="m510.99213 8.0l47.496094 0l0 48.503937l-47.496094 0z" fill-rule="evenodd"/><path stroke="#000000" stroke-width="1.0" stroke-linejoin="round" stroke-linecap="butt" d="m510.99213 8.0l47.496094 0l0 48.503937l-47.496094 0z" fill-rule="evenodd"/><path fill="#efefef" d="m530.95856 35.84384l-1.25 0l0 -2.0l1.640625 0l0.546875 -2.6875l-2.1875 0l0 -2.015625l2.609375 0l0.71875 -3.546875l2.03125 0l-0.71875 3.546875l2.015625 0l0.703125 -3.546875l2.109375 0l-0.71875 3.546875l1.25 0l0 2.015625l-1.671875 0l-0.546875 2.6875l2.21875 0l0 2.0l-2.625 0l-0.71875 3.5625l-2.03125 0l0.703125 -3.5625l-2.015625 0l-0.734375 3.5625l-2.046875 0l0.71875 -3.5625zm3.0 -4.6875l-0.546875 2.6875l2.03125 0l0.515625 -2.6875l-2.0 0z" fill-rule="nonzero"/><path fill="#666666" d="m567.49603 8.5l47.496094 0l0 48.503937l-47.496094 0z" fill-rule="evenodd"/><path stroke="#000000" stroke-width="1.0" stroke-linejoin="round" stroke-linecap="butt" d="m567.49603 8.5l47.496094 0l0 48.503937l-47.496094 0z" fill-rule="evenodd"/><path fill="#efefef" d="m587.46246 36.34384l-1.25 0l0 -2.0l1.640625 0l0.546875 -2.6875l-2.1875 0l0 -2.015625l2.609375 0l0.71875 -3.546875l2.03125 0l-0.71875 3.546875l2.015625 0l0.703125 -3.546875l2.109375 0l-0.71875 3.546875l1.25 0l0 2.015625l-1.671875 0l-0.546875 2.6875l2.21875 0l0 2.0l-2.625 0l-0.71875 3.5625l-2.03125 0l0.703125 -3.5625l-2.015625 0l-0.734375 3.5625l-2.046875 0l0.71875 -3.5625zm3.0 -4.6875l-0.546875 2.6875l2.03125 0l0.515625 -2.6875l-2.0 0z" fill-rule="nonzero"/><path fill="#000000" fill-opacity="0.0" d="m0 232.0l624.0 0l0 72.0l-624.0 0z" fill-rule="evenodd"/><path fill="#000000" d="m13.84375 258.91998l0 -11.781235l-4.40625 0l0 -1.578125l10.578125 0l0 1.578125l-4.40625 0l0 11.781235l-1.765625 0zm7.786606 0l0 -13.35936l1.640625 0l0 4.796875q1.140625 -1.328125 2.890625 -1.328125q1.078125 0 1.859375 0.421875q0.796875 0.421875 1.140625 1.171875q0.34375 0.75 0.34375 2.171875l0 6.1249847l-1.640625 0l0 -6.1249847q0 -1.234375 -0.53125 -1.796875q-0.53125 -0.5625 -1.515625 -0.5625q-0.71875 0 -1.359375 0.390625q-0.640625 0.375 -0.921875 1.015625q-0.265625 0.640625 -0.265625 1.78125l0 5.2968597l-1.640625 0zm10.375717 -11.468735l0 -1.890625l1.640625 0l0 1.890625l-1.640625 0zm0 11.468735l0 -9.67186l1.640625 0l0 9.67186l-1.640625 0zm3.4885712 -2.890625l1.625 -0.24998474q0.125 0.96873474 0.75 1.4999847q0.625 0.515625 1.75 0.515625q1.125 0 1.671875 -0.453125q0.546875 -0.46875 0.546875 -1.09375q0 -0.54685974 -0.484375 -0.87498474q-0.328125 -0.21875 -1.671875 -0.546875q-1.8125 -0.46875 -2.515625 -0.796875q-0.6875 -0.328125 -1.046875 -0.90625q-0.359375 -0.59375 -0.359375 -1.3125q0 -0.640625 0.296875 -1.1875q0.296875 -0.5625 0.8125 -0.921875q0.375 -0.28125 1.03125 -0.46875q0.671875 -0.203125 1.421875 -0.203125q1.140625 0 2.0 0.328125q0.859375 0.328125 1.265625 0.890625q0.421875 0.5625 0.578125 1.5l-1.609375 0.21875q-0.109375 -0.75 -0.640625 -1.171875q-0.515625 -0.421875 -1.46875 -0.421875q-1.140625 0 -1.625 0.375q-0.46875 0.375 -0.46875 0.875q0 0.3125 0.1875 0.578125q0.203125 0.265625 0.640625 0.4375q0.234375 0.09375 1.4375 0.421875q1.75 0.453125 2.4375 0.75q0.6875 0.296875 1.078125 0.859375q0.390625 0.5625 0.390625 1.4062347q0 0.828125 -0.484375 1.546875q-0.46875 0.71875 -1.375 1.125q-0.90625 0.390625 -2.046875 0.390625q-1.875 0 -2.875 -0.78125q-0.984375 -0.78125 -1.25 -2.328125zm21.433304 2.890625l0 -1.21875q-0.90625 1.4375 -2.703125 1.4375q-1.15625 0 -2.125 -0.640625q-0.96875 -0.640625 -1.5 -1.78125q-0.53125 -1.1406097 -0.53125 -2.6249847q0 -1.453125 0.484375 -2.625q0.484375 -1.1875 1.4375 -1.8125q0.96875 -0.625 2.171875 -0.625q0.875 0 1.546875 0.375q0.6875 0.359375 1.109375 0.953125l0 -4.796875l1.640625 0l0 13.35936l-1.53125 0zm-5.171875 -4.8281097q0 1.859375 0.78125 2.7812347q0.78125 0.921875 1.84375 0.921875q1.078125 0 1.828125 -0.875q0.75 -0.890625 0.75 -2.6874847q0 -1.984375 -0.765625 -2.90625q-0.765625 -0.9375 -1.890625 -0.9375q-1.078125 0 -1.8125 0.890625q-0.734375 0.890625 -0.734375 2.8125zm9.266342 4.8281097l0 -9.67186l1.46875 0l0 1.46875q0.5625 -1.03125 1.03125 -1.359375q0.484375 -0.328125 1.0625 -0.328125q0.828125 0 1.6875 0.53125l-0.5625 1.515625q-0.609375 -0.359375 -1.203125 -0.359375q-0.546875 0 -0.96875 0.328125q-0.421875 0.328125 -0.609375 0.890625q-0.28125 0.875 -0.28125 1.921875l0 5.0624847l-1.625 0zm12.540802 -1.1875q-0.921875 0.765625 -1.765625 1.09375q-0.828125 0.3125 -1.796875 0.3125q-1.59375 0 -2.453125 -0.78125q-0.859375 -0.78125 -0.859375 -1.984375q0 -0.71873474 0.328125 -1.2968597q0.328125 -0.59375 0.84375 -0.9375q0.53125 -0.359375 1.1875 -0.546875q0.46875 -0.125 1.453125 -0.25q1.984375 -0.234375 2.921875 -0.5625q0.015625 -0.34375 0.015625 -0.421875q0 -1.0 -0.46875 -1.421875q-0.625 -0.546875 -1.875 -0.546875q-1.15625 0 -1.703125 0.40625q-0.546875 0.40625 -0.8125 1.421875l-1.609375 -0.21875q0.21875 -1.015625 0.71875 -1.640625q0.5 -0.640625 1.453125 -0.984375q0.953125 -0.34375 2.1875 -0.34375q1.25 0 2.015625 0.296875q0.78125 0.28125 1.140625 0.734375q0.375 0.4375 0.515625 1.109375q0.078125 0.421875 0.078125 1.515625l0 2.1875q0 2.2812347 0.109375 2.8906097q0.109375 0.59375 0.40625 1.15625l-1.703125 0q-0.265625 -0.515625 -0.328125 -1.1875zm-0.140625 -3.6718597q-0.890625 0.375 -2.671875 0.625q-1.015625 0.140625 -1.4375 0.328125q-0.421875 0.1875 -0.65625 0.53125q-0.21875 0.34375 -0.21875 0.78123474q0 0.65625 0.5 1.09375q0.5 0.4375 1.453125 0.4375q0.9375 0 1.671875 -0.40625q0.75 -0.421875 1.09375 -1.140625q0.265625 -0.56248474 0.265625 -1.6406097l0 -0.609375zm5.985092 4.8593597l-2.96875 -9.67186l1.703125 0l1.53125 5.578125l0.578125 2.0781097q0.046875 -0.15625 0.5 -1.9999847l1.546875 -5.65625l1.6875 0l1.4375 5.609375l0.484375 1.8437347l0.5625 -1.8593597l1.65625 -5.59375l1.59375 0l-3.03125 9.67186l-1.703125 0l-1.53125 -5.7968597l-0.375 -1.640625l-1.953125 7.4374847l-1.71875 0zm11.691696 -11.468735l0 -1.890625l1.640625 0l0 1.890625l-1.640625 0zm0 11.468735l0 -9.67186l1.640625 0l0 9.67186l-1.640625 0zm4.144821 0l0 -9.67186l1.46875 0l0 1.375q1.0625 -1.59375 3.078125 -1.59375q0.875 0 1.609375 0.3125q0.734375 0.3125 1.09375 0.828125q0.375 0.5 0.515625 1.203125q0.09375 0.453125 0.09375 1.59375l0 5.9531097l-1.640625 0l0 -5.8906097q0 -1.0 -0.203125 -1.484375q-0.1875 -0.5 -0.671875 -0.796875q-0.484375 -0.296875 -1.140625 -0.296875q-1.046875 0 -1.8125 0.671875q-0.75 0.65625 -0.75 2.515625l0 5.2812347l-1.640625 0zm10.063217 0.796875l1.59375 0.234375q0.109375 0.75 0.5625 1.078125q0.609375 0.453125 1.671875 0.453125q1.140625 0 1.75 -0.453125q0.625 -0.453125 0.84375 -1.265625q0.125 -0.5 0.109375 -2.109375q-1.0625 1.265625 -2.671875 1.265625q-2.0 0 -3.09375 -1.4375q-1.09375 -1.4375 -1.09375 -3.4531097q0 -1.390625 0.5 -2.5625q0.515625 -1.171875 1.453125 -1.796875q0.953125 -0.640625 2.25 -0.640625q1.703125 0 2.8125 1.375l0 -1.15625l1.515625 0l0 8.35936q0 2.265625 -0.46875 3.203125q-0.453125 0.9375 -1.453125 1.484375q-0.984375 0.546875 -2.453125 0.546875q-1.71875 0 -2.796875 -0.78125q-1.0625 -0.765625 -1.03125 -2.34375zm1.359375 -5.8124847q0 1.90625 0.75 2.7812347q0.765625 0.875 1.90625 0.875q1.125 0 1.890625 -0.859375q0.765625 -0.87498474 0.765625 -2.7343597q0 -1.78125 -0.796875 -2.671875q-0.78125 -0.90625 -1.890625 -0.90625q-1.09375 0 -1.859375 0.890625q-0.765625 0.875 -0.765625 2.625zm14.465271 5.0156097l0 -13.35936l1.640625 0l0 13.35936l-1.640625 0zm4.191696 -11.468735l0 -1.890625l1.640625 0l0 1.890625l-1.640625 0zm0 11.468735l0 -9.67186l1.640625 0l0 9.67186l-1.640625 0zm6.832321 0l-3.6875 -9.67186l1.734375 0l2.078125 5.796875q0.328125 0.9375 0.625 1.9374847q0.203125 -0.765625 0.609375 -1.8281097l2.140625 -5.90625l1.6875 0l-3.65625 9.67186l-1.53125 0zm13.265625 -3.1093597l1.6875 0.20310974q-0.40625 1.484375 -1.484375 2.3125q-1.078125 0.8125 -2.765625 0.8125q-2.125 0 -3.375 -1.296875q-1.234375 -1.3125 -1.234375 -3.6718597q0 -2.453125 1.25 -3.796875q1.265625 -1.34375 3.265625 -1.34375q1.9375 0 3.15625 1.328125q1.234375 1.3125 1.234375 3.703125q0 0.15625 0 0.4375l-7.21875 0q0.09375 1.5937347 0.90625 2.4531097q0.8125 0.84375 2.015625 0.84375q0.90625 0 1.546875 -0.46875q0.640625 -0.484375 1.015625 -1.5156097zm-5.390625 -2.65625l5.40625 0q-0.109375 -1.21875 -0.625 -1.828125q-0.78125 -0.953125 -2.03125 -0.953125q-1.125 0 -1.90625 0.765625q-0.765625 0.75 -0.84375 2.015625zm8.485092 2.8749847l1.625 -0.24998474q0.125 0.96873474 0.75 1.4999847q0.625 0.515625 1.75 0.515625q1.125 0 1.671875 -0.453125q0.546875 -0.46875 0.546875 -1.09375q0 -0.54685974 -0.484375 -0.87498474q-0.328125 -0.21875 -1.671875 -0.546875q-1.8125 -0.46875 -2.515625 -0.796875q-0.6875 -0.328125 -1.046875 -0.90625q-0.359375 -0.59375 -0.359375 -1.3125q0 -0.640625 0.296875 -1.1875q0.296875 -0.5625 0.8125 -0.921875q0.375 -0.28125 1.03125 -0.46875q0.671875 -0.203125 1.421875 -0.203125q1.140625 0 2.0 0.328125q0.859375 0.328125 1.265625 0.890625q0.421875 0.5625 0.578125 1.5l-1.609375 0.21875q-0.109375 -0.75 -0.640625 -1.171875q-0.515625 -0.421875 -1.46875 -0.421875q-1.140625 0 -1.625 0.375q-0.46875 0.375 -0.46875 0.875q0 0.3125 0.1875 0.578125q0.203125 0.265625 0.640625 0.4375q0.234375 0.09375 1.4375 0.421875q1.75 0.453125 2.4375 0.75q0.6875 0.296875 1.078125 0.859375q0.390625 0.5625 0.390625 1.4062347q0 0.828125 -0.484375 1.546875q-0.46875 0.71875 -1.375 1.125q-0.90625 0.390625 -2.046875 0.390625q-1.875 0 -2.875 -0.78125q-0.984375 -0.78125 -1.25 -2.328125zm21.480179 1.703125q-0.921875 0.765625 -1.765625 1.09375q-0.828125 0.3125 -1.796875 0.3125q-1.59375 0 -2.453125 -0.78125q-0.859375 -0.78125 -0.859375 -1.984375q0 -0.71873474 0.328125 -1.2968597q0.328125 -0.59375 0.84375 -0.9375q0.53125 -0.359375 1.1875 -0.546875q0.46875 -0.125 1.453125 -0.25q1.984375 -0.234375 2.921875 -0.5625q0.015625 -0.34375 0.015625 -0.421875q0 -1.0 -0.46875 -1.421875q-0.625 -0.546875 -1.875 -0.546875q-1.15625 0 -1.703125 0.40625q-0.546875 0.40625 -0.8125 1.421875l-1.609375 -0.21875q0.21875 -1.015625 0.71875 -1.640625q0.5 -0.640625 1.453125 -0.984375q0.953125 -0.34375 2.1875 -0.34375q1.25 0 2.015625 0.296875q0.78125 0.28125 1.140625 0.734375q0.375 0.4375 0.515625 1.109375q0.078125 0.421875 0.078125 1.515625l0 2.1875q0 2.2812347 0.109375 2.8906097q0.109375 0.59375 0.40625 1.15625l-1.703125 0q-0.265625 -0.515625 -0.328125 -1.1875zm-0.140625 -3.6718597q-0.890625 0.375 -2.671875 0.625q-1.015625 0.140625 -1.4375 0.328125q-0.421875 0.1875 -0.65625 0.53125q-0.21875 0.34375 -0.21875 0.78123474q0 0.65625 0.5 1.09375q0.5 0.4375 1.453125 0.4375q0.9375 0 1.671875 -0.40625q0.75 -0.421875 1.09375 -1.140625q0.265625 -0.56248474 0.265625 -1.6406097l0 -0.609375zm7.781967 3.3906097l0.234375 1.453125q-0.6875 0.140625 -1.234375 0.140625q-0.890625 0 -1.390625 -0.28125q-0.484375 -0.28125 -0.6875 -0.734375q-0.203125 -0.46875 -0.203125 -1.9375l0 -5.5781097l-1.203125 0l0 -1.265625l1.203125 0l0 -2.390625l1.625 -0.984375l0 3.375l1.65625 0l0 1.265625l-1.65625 0l0 5.6718597q0 0.6875 0.078125 0.890625q0.09375 0.203125 0.28125 0.328125q0.203125 0.109375 0.578125 0.109375q0.265625 0 0.71875 -0.0625zm2.0583038 -6.3437347l0 -1.859375l1.859375 0l0 1.859375l-1.859375 0zm0 7.8124847l0 -1.875l1.859375 0l0 1.875l-1.859375 0z" fill-rule="nonzero"/><path fill="#000000" d="m10.234375 280.91998l0 -13.359375l1.640625 0l0 4.796875q1.140625 -1.328125 2.890625 -1.328125q1.078125 0 1.859375 0.421875q0.796875 0.421875 1.140625 1.171875q0.34375 0.75 0.34375 2.171875l0 6.125l-1.640625 0l0 -6.125q0 -1.234375 -0.53125 -1.796875q-0.53125 -0.5625 -1.515625 -0.5625q-0.71875 0 -1.359375 0.390625q-0.640625 0.375 -0.921875 1.015625q-0.265625 0.640625 -0.265625 1.78125l0 5.296875l-1.640625 0zm13.953842 -1.46875l0.234375 1.453125q-0.6875 0.140625 -1.234375 0.140625q-0.890625 0 -1.390625 -0.28125q-0.484375 -0.28125 -0.6875 -0.734375q-0.203125 -0.46875 -0.203125 -1.9375l0 -5.578125l-1.203125 0l0 -1.265625l1.203125 0l0 -2.390625l1.625 -0.984375l0 3.375l1.65625 0l0 1.265625l-1.65625 0l0 5.671875q0 0.6875 0.078125 0.890625q0.09375 0.203125 0.28125 0.328125q0.203125 0.109375 0.578125 0.109375q0.265625 0 0.71875 -0.0625zm5.183304 0l0.234375 1.453125q-0.6875 0.140625 -1.234375 0.140625q-0.890625 0 -1.390625 -0.28125q-0.484375 -0.28125 -0.6875 -0.734375q-0.203125 -0.46875 -0.203125 -1.9375l0 -5.578125l-1.203125 0l0 -1.265625l1.203125 0l0 -2.390625l1.625 -0.984375l0 3.375l1.65625 0l0 1.265625l-1.65625 0l0 5.671875q0 0.6875 0.078125 0.890625q0.09375 0.203125 0.28125 0.328125q0.203125 0.109375 0.578125 0.109375q0.265625 0 0.71875 -0.0625zm1.6051788 5.171875l0 -13.375l1.484375 0l0 1.25q0.53125 -0.734375 1.1875 -1.09375q0.671875 -0.375 1.625 -0.375q1.234375 0 2.171875 0.640625q0.953125 0.625 1.4375 1.796875q0.484375 1.15625 0.484375 2.546875q0 1.484375 -0.53125 2.671875q-0.53125 1.1875 -1.546875 1.828125q-1.015625 0.625 -2.140625 0.625q-0.8125 0 -1.46875 -0.34375q-0.65625 -0.34375 -1.0625 -0.875l0 4.703125l-1.640625 0zm1.484375 -8.484375q0 1.859375 0.75 2.765625q0.765625 0.890625 1.828125 0.890625q1.09375 0 1.875 -0.921875q0.78125 -0.9375 0.78125 -2.875q0 -1.84375 -0.765625 -2.765625q-0.75 -0.921875 -1.8125 -0.921875q-1.046875 0 -1.859375 0.984375q-0.796875 0.96875 -0.796875 2.84375zm8.235092 1.890625l1.625 -0.25q0.125 0.96875 0.75 1.5q0.625 0.515625 1.75 0.515625q1.125 0 1.671875 -0.453125q0.546875 -0.46875 0.546875 -1.09375q0 -0.546875 -0.484375 -0.875q-0.328125 -0.21875 -1.671875 -0.546875q-1.8125 -0.46875 -2.515625 -0.796875q-0.6875 -0.328125 -1.046875 -0.90625q-0.359375 -0.59375 -0.359375 -1.3125q0 -0.640625 0.296875 -1.1875q0.296875 -0.5625 0.8125 -0.921875q0.375 -0.28125 1.03125 -0.46875q0.671875 -0.203125 1.421875 -0.203125q1.140625 0 2.0 0.328125q0.859375 0.328125 1.265625 0.890625q0.421875 0.5625 0.578125 1.5l-1.609375 0.21875q-0.109375 -0.75 -0.640625 -1.171875q-0.515625 -0.421875 -1.46875 -0.421875q-1.140625 0 -1.625 0.375q-0.46875 0.375 -0.46875 0.875q0 0.3125 0.1875 0.578125q0.203125 0.265625 0.640625 0.4375q0.234375 0.09375 1.4375 0.421875q1.75 0.453125 2.4375 0.75q0.6875 0.296875 1.078125 0.859375q0.390625 0.5625 0.390625 1.40625q0 0.828125 -0.484375 1.546875q-0.46875 0.71875 -1.375 1.125q-0.90625 0.390625 -2.046875 0.390625q-1.875 0 -2.875 -0.78125q-0.984375 -0.78125 -1.25 -2.328125zm10.4375 -4.921875l0 -1.859375l1.859375 0l0 1.859375l-1.859375 0zm0 7.8125l0 -1.875l1.859375 0l0 1.875l-1.859375 0zm3.4958038 0.234375l3.875 -13.8125l1.3125 0l-3.859375 13.8125l-1.328125 0zm5.183304 0l3.875 -13.8125l1.3125 0l-3.859375 13.8125l-1.328125 0zm5.761429 -3.125l1.625 -0.25q0.125 0.96875 0.75 1.5q0.625 0.515625 1.75 0.515625q1.125 0 1.671875 -0.453125q0.546875 -0.46875 0.546875 -1.09375q0 -0.546875 -0.484375 -0.875q-0.328125 -0.21875 -1.671875 -0.546875q-1.8125 -0.46875 -2.515625 -0.796875q-0.6875 -0.328125 -1.046875 -0.90625q-0.359375 -0.59375 -0.359375 -1.3125q0 -0.640625 0.296875 -1.1875q0.296875 -0.5625 0.8125 -0.921875q0.375 -0.28125 1.03125 -0.46875q0.671875 -0.203125 1.421875 -0.203125q1.140625 0 2.0 0.328125q0.859375 0.328125 1.265625 0.890625q0.421875 0.5625 0.578125 1.5l-1.609375 0.21875q-0.109375 -0.75 -0.640625 -1.171875q-0.515625 -0.421875 -1.46875 -0.421875q-1.140625 0 -1.625 0.375q-0.46875 0.375 -0.46875 0.875q0 0.3125 0.1875 0.578125q0.203125 0.265625 0.640625 0.4375q0.234375 0.09375 1.4375 0.421875q1.75 0.453125 2.4375 0.75q0.6875 0.296875 1.078125 0.859375q0.390625 0.5625 0.390625 1.40625q0 0.828125 -0.484375 1.546875q-0.46875 0.71875 -1.375 1.125q-0.90625 0.390625 -2.046875 0.390625q-1.875 0 -2.875 -0.78125q-0.984375 -0.78125 -1.25 -2.328125zm9.984375 -8.578125l0 -1.890625l1.640625 0l0 1.890625l-1.640625 0zm0 11.46875l0 -9.671875l1.640625 0l0 9.671875l-1.640625 0zm7.722946 -1.46875l0.234375 1.453125q-0.6875 0.140625 -1.234375 0.140625q-0.890625 0 -1.390625 -0.28125q-0.484375 -0.28125 -0.6875 -0.734375q-0.203125 -0.46875 -0.203125 -1.9375l0 -5.578125l-1.203125 0l0 -1.265625l1.203125 0l0 -2.390625l1.625 -0.984375l0 3.375l1.65625 0l0 1.265625l-1.65625 0l0 5.671875q0 0.6875 0.078125 0.890625q0.09375 0.203125 0.28125 0.328125q0.203125 0.109375 0.578125 0.109375q0.265625 0 0.71875 -0.0625zm8.230179 -1.640625l1.6875 0.203125q-0.40625 1.484375 -1.484375 2.3125q-1.078125 0.8125 -2.765625 0.8125q-2.125 0 -3.375 -1.296875q-1.234375 -1.3125 -1.234375 -3.671875q0 -2.453125 1.25 -3.796875q1.265625 -1.34375 3.265625 -1.34375q1.9375 0 3.15625 1.328125q1.234375 1.3125 1.234375 3.703125q0 0.15625 0 0.4375l-7.21875 0q0.09375 1.59375 0.90625 2.453125q0.8125 0.84375 2.015625 0.84375q0.90625 0 1.546875 -0.46875q0.640625 -0.484375 1.015625 -1.515625zm-5.390625 -2.65625l5.40625 0q-0.109375 -1.21875 -0.625 -1.828125q-0.78125 -0.953125 -2.03125 -0.953125q-1.125 0 -1.90625 0.765625q-0.765625 0.75 -0.84375 2.015625zm8.485092 2.875l1.625 -0.25q0.125 0.96875 0.75 1.5q0.625 0.515625 1.75 0.515625q1.125 0 1.671875 -0.453125q0.546875 -0.46875 0.546875 -1.09375q0 -0.546875 -0.484375 -0.875q-0.328125 -0.21875 -1.671875 -0.546875q-1.8125 -0.46875 -2.515625 -0.796875q-0.6875 -0.328125 -1.046875 -0.90625q-0.359375 -0.59375 -0.359375 -1.3125q0 -0.640625 0.296875 -1.1875q0.296875 -0.5625 0.8125 -0.921875q0.375 -0.28125 1.03125 -0.46875q0.671875 -0.203125 1.421875 -0.203125q1.140625 0 2.0 0.328125q0.859375 0.328125 1.265625 0.890625q0.421875 0.5625 0.578125 1.5l-1.609375 0.21875q-0.109375 -0.75 -0.640625 -1.171875q-0.515625 -0.421875 -1.46875 -0.421875q-1.140625 0 -1.625 0.375q-0.46875 0.375 -0.46875 0.875q0 0.3125 0.1875 0.578125q0.203125 0.265625 0.640625 0.4375q0.234375 0.09375 1.4375 0.421875q1.75 0.453125 2.4375 0.75q0.6875 0.296875 1.078125 0.859375q0.390625 0.5625 0.390625 1.40625q0 0.828125 -0.484375 1.546875q-0.46875 0.71875 -1.375 1.125q-0.90625 0.390625 -2.046875 0.390625q-1.875 0 -2.875 -0.78125q-0.984375 -0.78125 -1.25 -2.328125zm10.4375 2.890625l0 -1.875l1.875 0l0 1.875l-1.875 0zm4.417679 0.796875l1.59375 0.234375q0.109375 0.75 0.5625 1.078125q0.609375 0.453125 1.671875 0.453125q1.140625 0 1.75 -0.453125q0.625 -0.453125 0.84375 -1.265625q0.125 -0.5 0.109375 -2.109375q-1.0625 1.265625 -2.671875 1.265625q-2.0 0 -3.09375 -1.4375q-1.09375 -1.4375 -1.09375 -3.453125q0 -1.390625 0.5 -2.5625q0.515625 -1.171875 1.453125 -1.796875q0.953125 -0.640625 2.25 -0.640625q1.703125 0 2.8125 1.375l0 -1.15625l1.515625 0l0 8.359375q0 2.265625 -0.46875 3.203125q-0.453125 0.9375 -1.453125 1.484375q-0.984375 0.546875 -2.453125 0.546875q-1.71875 0 -2.796875 -0.78125q-1.0625 -0.765625 -1.03125 -2.34375zm1.359375 -5.8125q0 1.90625 0.75 2.78125q0.765625 0.875 1.90625 0.875q1.125 0 1.890625 -0.859375q0.765625 -0.875 0.765625 -2.734375q0 -1.78125 -0.796875 -2.671875q-0.78125 -0.90625 -1.890625 -0.90625q-1.09375 0 -1.859375 0.890625q-0.765625 0.875 -0.765625 2.625zm8.719467 0.171875q0 -2.6875 1.484375 -3.96875q1.25 -1.078125 3.046875 -1.078125q2.0 0 3.265625 1.3125q1.265625 1.296875 1.265625 3.609375q0 1.859375 -0.5625 2.9375q-0.5625 1.0625 -1.640625 1.65625q-1.0625 0.59375 -2.328125 0.59375q-2.03125 0 -3.28125 -1.296875q-1.25 -1.3125 -1.25 -3.765625zm1.6875 0q0 1.859375 0.796875 2.796875q0.8125 0.921875 2.046875 0.921875q1.21875 0 2.03125 -0.921875q0.8125 -0.9375 0.8125 -2.84375q0 -1.796875 -0.8125 -2.71875q-0.8125 -0.921875 -2.03125 -0.921875q-1.234375 0 -2.046875 0.921875q-0.796875 0.90625 -0.796875 2.765625zm8.688217 0q0 -2.6875 1.484375 -3.96875q1.25 -1.078125 3.046875 -1.078125q2.0 0 3.265625 1.3125q1.265625 1.296875 1.265625 3.609375q0 1.859375 -0.5625 2.9375q-0.5625 1.0625 -1.640625 1.65625q-1.0625 0.59375 -2.328125 0.59375q-2.03125 0 -3.28125 -1.296875q-1.25 -1.3125 -1.25 -3.765625zm1.6875 0q0 1.859375 0.796875 2.796875q0.8125 0.921875 2.046875 0.921875q1.21875 0 2.03125 -0.921875q0.8125 -0.9375 0.8125 -2.84375q0 -1.796875 -0.8125 -2.71875q-0.8125 -0.921875 -2.03125 -0.921875q-1.234375 0 -2.046875 0.921875q-0.796875 0.90625 -0.796875 2.765625zm8.985092 5.640625l1.59375 0.234375q0.109375 0.75 0.5625 1.078125q0.609375 0.453125 1.671875 0.453125q1.140625 0 1.75 -0.453125q0.625 -0.453125 0.84375 -1.265625q0.125 -0.5 0.109375 -2.109375q-1.0625 1.265625 -2.671875 1.265625q-2.0 0 -3.09375 -1.4375q-1.09375 -1.4375 -1.09375 -3.453125q0 -1.390625 0.5 -2.5625q0.515625 -1.171875 1.453125 -1.796875q0.953125 -0.640625 2.25 -0.640625q1.703125 0 2.8125 1.375l0 -1.15625l1.515625 0l0 8.359375q0 2.265625 -0.46875 3.203125q-0.453125 0.9375 -1.453125 1.484375q-0.984375 0.546875 -2.453125 0.546875q-1.71875 0 -2.796875 -0.78125q-1.0625 -0.765625 -1.03125 -2.34375zm1.359375 -5.8125q0 1.90625 0.75 2.78125q0.765625 0.875 1.90625 0.875q1.125 0 1.890625 -0.859375q0.765625 -0.875 0.765625 -2.734375q0 -1.78125 -0.796875 -2.671875q-0.78125 -0.90625 -1.890625 -0.90625q-1.09375 0 -1.859375 0.890625q-0.765625 0.875 -0.765625 2.625zm9.281967 5.015625l0 -13.359375l1.640625 0l0 13.359375l-1.640625 0zm10.816696 -3.109375l1.6875 0.203125q-0.40625 1.484375 -1.484375 2.3125q-1.078125 0.8125 -2.765625 0.8125q-2.125 0 -3.375 -1.296875q-1.234375 -1.3125 -1.234375 -3.671875q0 -2.453125 1.25 -3.796875q1.265625 -1.34375 3.265625 -1.34375q1.9375 0 3.15625 1.328125q1.234375 1.3125 1.234375 3.703125q0 0.15625 0 0.4375l-7.21875 0q0.09375 1.59375 0.90625 2.453125q0.8125 0.84375 2.015625 0.84375q0.90625 0 1.546875 -0.46875q0.640625 -0.484375 1.015625 -1.515625zm-5.390625 -2.65625l5.40625 0q-0.109375 -1.21875 -0.625 -1.828125q-0.78125 -0.953125 -2.03125 -0.953125q-1.125 0 -1.90625 0.765625q-0.765625 0.75 -0.84375 2.015625zm9.594467 5.765625l0 -1.875l1.875 0l0 1.875l-1.875 0zm11.042679 -3.546875l1.609375 0.21875q-0.265625 1.65625 -1.359375 2.609375q-1.078125 0.9375 -2.671875 0.9375q-1.984375 0 -3.1875 -1.296875q-1.203125 -1.296875 -1.203125 -3.71875q0 -1.578125 0.515625 -2.75q0.515625 -1.171875 1.578125 -1.75q1.0625 -0.59375 2.3125 -0.59375q1.578125 0 2.578125 0.796875q1.0 0.796875 1.28125 2.265625l-1.59375 0.234375q-0.234375 -0.96875 -0.8125 -1.453125q-0.578125 -0.5 -1.390625 -0.5q-1.234375 0 -2.015625 0.890625q-0.78125 0.890625 -0.78125 2.8125q0 1.953125 0.75 2.84375q0.75 0.875 1.953125 0.875q0.96875 0 1.609375 -0.59375q0.65625 -0.59375 0.828125 -1.828125zm2.40625 -1.296875q0 -2.6875 1.484375 -3.96875q1.25 -1.078125 3.046875 -1.078125q2.0 0 3.265625 1.3125q1.265625 1.296875 1.265625 3.609375q0 1.859375 -0.5625 2.9375q-0.5625 1.0625 -1.640625 1.65625q-1.0625 0.59375 -2.328125 0.59375q-2.03125 0 -3.28125 -1.296875q-1.25 -1.3125 -1.25 -3.765625zm1.6875 0q0 1.859375 0.796875 2.796875q0.8125 0.921875 2.046875 0.921875q1.21875 0 2.03125 -0.921875q0.8125 -0.9375 0.8125 -2.84375q0 -1.796875 -0.8125 -2.71875q-0.8125 -0.921875 -2.03125 -0.921875q-1.234375 0 -2.046875 0.921875q-0.796875 0.90625 -0.796875 2.765625zm9.297592 4.84375l0 -9.671875l1.46875 0l0 1.359375q0.453125 -0.71875 1.203125 -1.140625q0.765625 -0.4375 1.71875 -0.4375q1.078125 0 1.765625 0.453125q0.6875 0.4375 0.96875 1.234375q1.15625 -1.6875 2.984375 -1.6875q1.453125 0 2.21875 0.796875q0.78125 0.796875 0.78125 2.453125l0 6.640625l-1.640625 0l0 -6.09375q0 -0.984375 -0.15625 -1.40625q-0.15625 -0.4375 -0.578125 -0.703125q-0.421875 -0.265625 -0.984375 -0.265625q-1.015625 0 -1.6875 0.6875q-0.671875 0.671875 -0.671875 2.15625l0 5.625l-1.640625 0l0 -6.28125q0 -1.09375 -0.40625 -1.640625q-0.40625 -0.546875 -1.3125 -0.546875q-0.6875 0 -1.28125 0.359375q-0.59375 0.359375 -0.859375 1.0625q-0.25 0.703125 -0.25 2.03125l0 5.015625l-1.640625 0zm14.306427 0.234375l3.875 -13.8125l1.3125 0l-3.859375 13.8125l-1.328125 0zm5.761429 -3.125l1.625 -0.25q0.125 0.96875 0.75 1.5q0.625 0.515625 1.75 0.515625q1.125 0 1.671875 -0.453125q0.546875 -0.46875 0.546875 -1.09375q0 -0.546875 -0.484375 -0.875q-0.328125 -0.21875 -1.671875 -0.546875q-1.8125 -0.46875 -2.515625 -0.796875q-0.6875 -0.328125 -1.046875 -0.90625q-0.359375 -0.59375 -0.359375 -1.3125q0 -0.640625 0.296875 -1.1875q0.296875 -0.5625 0.8125 -0.921875q0.375 -0.28125 1.03125 -0.46875q0.671875 -0.203125 1.421875 -0.203125q1.140625 0 2.0 0.328125q0.859375 0.328125 1.265625 0.890625q0.421875 0.5625 0.578125 1.5l-1.609375 0.21875q-0.109375 -0.75 -0.640625 -1.171875q-0.515625 -0.421875 -1.46875 -0.421875q-1.140625 0 -1.625 0.375q-0.46875 0.375 -0.46875 0.875q0 0.3125 0.1875 0.578125q0.203125 0.265625 0.640625 0.4375q0.234375 0.09375 1.4375 0.421875q1.75 0.453125 2.4375 0.75q0.6875 0.296875 1.078125 0.859375q0.390625 0.5625 0.390625 1.40625q0 0.828125 -0.484375 1.546875q-0.46875 0.71875 -1.375 1.125q-0.90625 0.390625 -2.046875 0.390625q-1.875 0 -2.875 -0.78125q-0.984375 -0.78125 -1.25 -2.328125zm9.984375 -8.578125l0 -1.890625l1.640625 0l0 1.890625l-1.640625 0zm0 11.46875l0 -9.671875l1.640625 0l0 9.671875l-1.640625 0zm7.722946 -1.46875l0.234375 1.453125q-0.6875 0.140625 -1.234375 0.140625q-0.890625 0 -1.390625 -0.28125q-0.484375 -0.28125 -0.6875 -0.734375q-0.203125 -0.46875 -0.203125 -1.9375l0 -5.578125l-1.203125 0l0 -1.265625l1.203125 0l0 -2.390625l1.625 -0.984375l0 3.375l1.65625 0l0 1.265625l-1.65625 0l0 5.671875q0 0.6875 0.078125 0.890625q0.09375 0.203125 0.28125 0.328125q0.203125 0.109375 0.578125 0.109375q0.265625 0 0.71875 -0.0625zm8.230179 -1.640625l1.6875 0.203125q-0.40625 1.484375 -1.484375 2.3125q-1.078125 0.8125 -2.765625 0.8125q-2.125 0 -3.375 -1.296875q-1.234375 -1.3125 -1.234375 -3.671875q0 -2.453125 1.25 -3.796875q1.265625 -1.34375 3.265625 -1.34375q1.9375 0 3.15625 1.328125q1.234375 1.3125 1.234375 3.703125q0 0.15625 0 0.4375l-7.21875 0q0.09375 1.59375 0.90625 2.453125q0.8125 0.84375 2.015625 0.84375q0.90625 0 1.546875 -0.46875q0.640625 -0.484375 1.015625 -1.515625zm-5.390625 -2.65625l5.40625 0q-0.109375 -1.21875 -0.625 -1.828125q-0.78125 -0.953125 -2.03125 -0.953125q-1.125 0 -1.90625 0.765625q-0.765625 0.75 -0.84375 2.015625zm7.906967 6.0l3.875 -13.8125l1.3125 0l-3.859375 13.8125l-1.328125 0zm6.417679 3.46875l0 -13.375l1.484375 0l0 1.25q0.53125 -0.734375 1.1875 -1.09375q0.671875 -0.375 1.625 -0.375q1.234375 0 2.171875 0.640625q0.953125 0.625 1.4375 1.796875q0.484375 1.15625 0.484375 2.546875q0 1.484375 -0.53125 2.671875q-0.53125 1.1875 -1.546875 1.828125q-1.015625 0.625 -2.140625 0.625q-0.8125 0 -1.46875 -0.34375q-0.65625 -0.34375 -1.0625 -0.875l0 4.703125l-1.640625 0zm1.484375 -8.484375q0 1.859375 0.75 2.765625q0.765625 0.890625 1.828125 0.890625q1.09375 0 1.875 -0.921875q0.78125 -0.9375 0.78125 -2.875q0 -1.84375 -0.765625 -2.765625q-0.75 -0.921875 -1.8125 -0.921875q-1.046875 0 -1.859375 0.984375q-0.796875 0.96875 -0.796875 2.84375zm8.844467 4.78125l0 -13.359375l1.6406403 0l0 13.359375l-1.6406403 0zm3.5823212 -4.84375q0 -2.6875 1.484375 -3.96875q1.25 -1.078125 3.046875 -1.078125q2.0 0 3.265625 1.3125q1.265625 1.296875 1.265625 3.609375q0 1.859375 -0.5625 2.9375q-0.5625 1.0625 -1.640625 1.65625q-1.0625 0.59375 -2.328125 0.59375q-2.03125 0 -3.28125 -1.296875q-1.25 -1.3125 -1.25 -3.765625zm1.6875 0q0 1.859375 0.796875 2.796875q0.8125 0.921875 2.046875 0.921875q1.21875 0 2.03125 -0.921875q0.8125 -0.9375 0.8125 -2.84375q0 -1.796875 -0.8125 -2.71875q-0.8125 -0.921875 -2.03125 -0.921875q-1.234375 0 -2.046875 0.921875q-0.796875 0.90625 -0.796875 2.765625zm11.985077 4.84375l-3.6875 -9.671875l1.734375 0l2.078125 5.796875q0.328125 0.9375 0.625 1.9375q0.203125 -0.765625 0.609375 -1.828125l2.140625 -5.90625l1.6875 0l-3.65625 9.671875l-1.53125 0zm13.265625 -3.109375l1.6875 0.203125q-0.40625 1.484375 -1.484375 2.3125q-1.078125 0.8125 -2.765625 0.8125q-2.125 0 -3.375 -1.296875q-1.234375 -1.3125 -1.234375 -3.671875q0 -2.453125 1.25 -3.796875q1.265625 -1.34375 3.265625 -1.34375q1.9375 0 3.15625 1.328125q1.234375 1.3125 1.234375 3.703125q0 0.15625 0 0.4375l-7.21875 0q0.09375 1.59375 0.90625 2.453125q0.8125 0.84375 2.015625 0.84375q0.90625 0 1.546875 -0.46875q0.640625 -0.484375 1.015625 -1.515625zm-5.390625 -2.65625l5.40625 0q-0.109375 -1.21875 -0.625 -1.828125q-0.78125 -0.953125 -2.03125 -0.953125q-1.125 0 -1.90625 0.765625q-0.765625 0.75 -0.84375 2.015625zm9.125732 5.765625l0 -9.671875l1.46875 0l0 1.46875q0.5625 -1.03125 1.03125 -1.359375q0.484375 -0.328125 1.0625 -0.328125q0.828125 0 1.6875 0.53125l-0.5625 1.515625q-0.609375 -0.359375 -1.203125 -0.359375q-0.546875 0 -0.96875 0.328125q-0.421875 0.328125 -0.609375 0.890625q-0.28125 0.875 -0.28125 1.921875l0 5.0625l-1.625 0zm12.493927 0l0 -1.21875q-0.90625 1.4375 -2.703125 1.4375q-1.15625 0 -2.125 -0.640625q-0.96875 -0.640625 -1.5 -1.78125q-0.53125 -1.140625 -0.53125 -2.625q0 -1.453125 0.484375 -2.625q0.484375 -1.1875 1.4375 -1.8125q0.96875 -0.625 2.171875 -0.625q0.875 0 1.546875 0.375q0.6875 0.359375 1.109375 0.953125l0 -4.796875l1.640625 0l0 13.359375l-1.53125 0zm-5.171875 -4.828125q0 1.859375 0.78125 2.78125q0.78125 0.921875 1.84375 0.921875q1.078125 0 1.828125 -0.875q0.75 -0.890625 0.75 -2.6875q0 -1.984375 -0.765625 -2.90625q-0.765625 -0.9375 -1.890625 -0.9375q-1.078125 0 -1.8125 0.890625q-0.734375 0.890625 -0.734375 2.8125zm8.672577 -0.015625q0 -2.6875 1.484375 -3.96875q1.25 -1.078125 3.046875 -1.078125q2.0 0 3.265625 1.3125q1.265625 1.296875 1.265625 3.609375q0 1.859375 -0.5625 2.9375q-0.5625 1.0625 -1.640625 1.65625q-1.0625 0.59375 -2.328125 0.59375q-2.03125 0 -3.28125 -1.296875q-1.25 -1.3125 -1.25 -3.765625zm1.6875 0q0 1.859375 0.796875 2.796875q0.8125 0.921875 2.046875 0.921875q1.21875 0 2.03125 -0.921875q0.8125 -0.9375 0.8125 -2.84375q0 -1.796875 -0.8125 -2.71875q-0.8125 -0.921875 -2.03125 -0.921875q-1.234375 0 -2.046875 0.921875q-0.796875 0.90625 -0.796875 2.765625zm15.610107 1.296875l1.609375 0.21875q-0.265625 1.65625 -1.359375 2.609375q-1.078125 0.9375 -2.671875 0.9375q-1.984375 0 -3.1875 -1.296875q-1.203125 -1.296875 -1.203125 -3.71875q0 -1.578125 0.515625 -2.75q0.515625 -1.171875 1.578125 -1.75q1.0625 -0.59375 2.3125 -0.59375q1.578125 0 2.578125 0.796875q1.0 0.796875 1.28125 2.265625l-1.59375 0.234375q-0.234375 -0.96875 -0.8125 -1.453125q-0.578125 -0.5 -1.390625 -0.5q-1.234375 0 -2.015625 0.890625q-0.78125 0.890625 -0.78125 2.8125q0 1.953125 0.75 2.84375q0.75 0.875 1.953125 0.875q0.96875 0 1.609375 -0.59375q0.65625 -0.59375 0.828125 -1.828125zm1.78125 3.78125l3.875 -13.8125l1.3125 0l-3.859375 13.8125l-1.328125 0zm6.3707886 -0.234375l0 -13.359375l1.640625 0l0 13.359375l-1.640625 0zm10.816711 -3.109375l1.6875 0.203125q-0.40625 1.484375 -1.484375 2.3125q-1.078125 0.8125 -2.765625 0.8125q-2.125 0 -3.375 -1.296875q-1.234375 -1.3125 -1.234375 -3.671875q0 -2.453125 1.25 -3.796875q1.265625 -1.34375 3.265625 -1.34375q1.9375 0 3.15625 1.328125q1.234375 1.3125 1.234375 3.703125q0 0.15625 0 0.4375l-7.21875 0q0.09375 1.59375 0.90625 2.453125q0.8125 0.84375 2.015625 0.84375q0.90625 0 1.546875 -0.46875q0.640625 -0.484375 1.015625 -1.515625zm-5.390625 -2.65625l5.40625 0q-0.109375 -1.21875 -0.625 -1.828125q-0.78125 -0.953125 -2.03125 -0.953125q-1.125 0 -1.90625 0.765625q-0.765625 0.75 -0.84375 2.015625zm8.485107 2.875l1.625 -0.25q0.125 0.96875 0.75 1.5q0.625 0.515625 1.75 0.515625q1.125 0 1.671875 -0.453125q0.546875 -0.46875 0.546875 -1.09375q0 -0.546875 -0.484375 -0.875q-0.328125 -0.21875 -1.671875 -0.546875q-1.8125 -0.46875 -2.515625 -0.796875q-0.6875 -0.328125 -1.046875 -0.90625q-0.359375 -0.59375 -0.359375 -1.3125q0 -0.640625 0.296875 -1.1875q0.296875 -0.5625 0.8125 -0.921875q0.375 -0.28125 1.03125 -0.46875q0.671875 -0.203125 1.421875 -0.203125q1.140625 0 2.0 0.328125q0.859375 0.328125 1.265625 0.890625q0.421875 0.5625 0.578125 1.5l-1.609375 0.21875q-0.109375 -0.75 -0.640625 -1.171875q-0.515625 -0.421875 -1.46875 -0.421875q-1.140625 0 -1.625 0.375q-0.46875 0.375 -0.46875 0.875q0 0.3125 0.1875 0.578125q0.203125 0.265625 0.640625 0.4375q0.234375 0.09375 1.4375 0.421875q1.75 0.453125 2.4375 0.75q0.6875 0.296875 1.078125 0.859375q0.390625 0.5625 0.390625 1.40625q0 0.828125 -0.484375 1.546875q-0.46875 0.71875 -1.375 1.125q-0.90625 0.390625 -2.046875 0.390625q-1.875 0 -2.875 -0.78125q-0.984375 -0.78125 -1.25 -2.328125zm9.328125 0l1.625 -0.25q0.125 0.96875 0.75 1.5q0.625 0.515625 1.75 0.515625q1.125 0 1.671875 -0.453125q0.546875 -0.46875 0.546875 -1.09375q0 -0.546875 -0.484375 -0.875q-0.328125 -0.21875 -1.671875 -0.546875q-1.8125 -0.46875 -2.515625 -0.796875q-0.6875 -0.328125 -1.046875 -0.90625q-0.359375 -0.59375 -0.359375 -1.3125q0 -0.640625 0.296875 -1.1875q0.296875 -0.5625 0.8125 -0.921875q0.375 -0.28125 1.03125 -0.46875q0.671875 -0.203125 1.421875 -0.203125q1.140625 0 2.0 0.328125q0.859375 0.328125 1.265625 0.890625q0.421875 0.5625 0.578125 1.5l-1.609375 0.21875q-0.109375 -0.75 -0.640625 -1.171875q-0.515625 -0.421875 -1.46875 -0.421875q-1.140625 0 -1.625 0.375q-0.46875 0.375 -0.46875 0.875q0 0.3125 0.1875 0.578125q0.203125 0.265625 0.640625 0.4375q0.234375 0.09375 1.4375 0.421875q1.75 0.453125 2.4375 0.75q0.6875 0.296875 1.078125 0.859375q0.390625 0.5625 0.390625 1.40625q0 0.828125 -0.484375 1.546875q-0.46875 0.71875 -1.375 1.125q-0.90625 0.390625 -2.046875 0.390625q-1.875 0 -2.875 -0.78125q-0.984375 -0.78125 -1.25 -2.328125zm9.375 -1.953125q0 -2.6875 1.484375 -3.96875q1.25 -1.078125 3.046875 -1.078125q2.0 0 3.265625 1.3125q1.265625 1.296875 1.265625 3.609375q0 1.859375 -0.5625 2.9375q-0.5625 1.0625 -1.640625 1.65625q-1.0625 0.59375 -2.328125 0.59375q-2.03125 0 -3.28125 -1.296875q-1.25 -1.3125 -1.25 -3.765625zm1.6875 0q0 1.859375 0.796875 2.796875q0.8125 0.921875 2.046875 0.921875q1.21875 0 2.03125 -0.921875q0.8125 -0.9375 0.8125 -2.84375q0 -1.796875 -0.8125 -2.71875q-0.8125 -0.921875 -2.03125 -0.921875q-1.234375 0 -2.046875 0.921875q-0.796875 0.90625 -0.796875 2.765625zm9.297607 4.84375l0 -9.671875l1.46875 0l0 1.375q1.0625 -1.59375 3.078125 -1.59375q0.875 0 1.609375 0.3125q0.734375 0.3125 1.09375 0.828125q0.375 0.5 0.515625 1.203125q0.09375 0.453125 0.09375 1.59375l0 5.953125l-1.640625 0l0 -5.890625q0 -1.0 -0.203125 -1.484375q-0.1875 -0.5 -0.671875 -0.796875q-0.484375 -0.296875 -1.140625 -0.296875q-1.046875 0 -1.8125 0.671875q-0.75 0.65625 -0.75 2.515625l0 5.28125l-1.640625 0zm9.735107 -4.015625l0 -1.640625l5.03125 0l0 1.640625l-5.03125 0zm8.915802 -3.21875q-1.015625 -0.375 -1.515625 -1.0625q-0.484375 -0.703125 -0.484375 -1.671875q0 -1.453125 1.046875 -2.4375q1.046875 -1.0 2.78125 -1.0q1.75 0 2.8125 1.015625q1.078125 1.015625 1.078125 2.46875q0 0.9375 -0.5 1.625q-0.484375 0.6875 -1.46875 1.0625q1.21875 0.390625 1.859375 1.28125q0.65625 0.890625 0.65625 2.140625q0 1.703125 -1.21875 2.875q-1.21875 1.171875 -3.1875 1.171875q-1.984375 0 -3.203125 -1.171875q-1.203125 -1.171875 -1.203125 -2.921875q0 -1.3125 0.65625 -2.1875q0.671875 -0.875 1.890625 -1.1875zm-0.328125 -2.78125q0 0.9375 0.609375 1.546875q0.609375 0.59375 1.59375 0.59375q0.9375 0 1.546875 -0.59375q0.609375 -0.59375 0.609375 -1.453125q0 -0.90625 -0.625 -1.515625q-0.625 -0.625 -1.5625 -0.625q-0.9375 0 -1.5625 0.609375q-0.609375 0.59375 -0.609375 1.4375zm-0.53125 6.15625q0 0.703125 0.328125 1.359375q0.34375 0.65625 1.0 1.015625q0.65625 0.359375 1.40625 0.359375q1.171875 0 1.9375 -0.75q0.765625 -0.75 0.765625 -1.921875q0 -1.1875 -0.796875 -1.953125q-0.78125 -0.78125 -1.953125 -0.78125q-1.15625 0 -1.921875 0.765625q-0.765625 0.765625 -0.765625 1.90625zm8.531952 -0.15625l0 -1.640625l5.03125 0l0 1.640625l-5.03125 0zm6.853302 4.015625l0 -9.671875l1.46875 0l0 1.375q1.0625 -1.59375 3.078125 -1.59375q0.875 0 1.609375 0.3125q0.734375 0.3125 1.09375 0.828125q0.375 0.5 0.515625 1.203125q0.09375 0.453125 0.09375 1.59375l0 5.953125l-1.640625 0l0 -5.890625q0 -1.0 -0.203125 -1.484375q-0.1875 -0.5 -0.671875 -0.796875q-0.484375 -0.296875 -1.140625 -0.296875q-1.046875 0 -1.8125 0.671875q-0.75 0.65625 -0.75 2.515625l0 5.28125l-1.640625 0zm16.703827 0l0 -1.421875q-1.125 1.640625 -3.0625 1.640625q-0.859375 0 -1.609375 -0.328125q-0.734375 -0.328125 -1.09375 -0.828125q-0.359375 -0.5 -0.5 -1.21875q-0.109375 -0.46875 -0.109375 -1.53125l0 -5.984375l1.640625 0l0 5.359375q0 1.28125 0.109375 1.734375q0.15625 0.640625 0.65625 1.015625q0.5 0.375 1.234375 0.375q0.734375 0 1.375 -0.375q0.65625 -0.390625 0.921875 -1.03125q0.265625 -0.65625 0.265625 -1.890625l0 -5.1875l1.640625 0l0 9.671875l-1.46875 0zm4.0476074 0l0 -9.671875l1.46875 0l0 1.359375q0.453125 -0.71875 1.203125 -1.140625q0.765625 -0.4375 1.71875 -0.4375q1.078125 0 1.765625 0.453125q0.6875 0.4375 0.96875 1.234375q1.15625 -1.6875 2.984375 -1.6875q1.453125 0 2.21875 0.796875q0.78125 0.796875 0.78125 2.453125l0 6.640625l-1.640625 0l0 -6.09375q0 -0.984375 -0.15625 -1.40625q-0.15625 -0.4375 -0.578125 -0.703125q-0.421875 -0.265625 -0.984375 -0.265625q-1.015625 0 -1.6875 0.6875q-0.671875 0.671875 -0.671875 2.15625l0 5.625l-1.640625 0l0 -6.28125q0 -1.09375 -0.40625 -1.640625q-0.40625 -0.546875 -1.3125 -0.546875q-0.6875 0 -1.28125 0.359375q-0.59375 0.359375 -0.859375 1.0625q-0.25 0.703125 -0.25 2.03125l0 5.015625l-1.640625 0zm17.040802 0l-1.515625 0l0 -13.359375l1.640625 0l0 4.765625q1.046875 -1.296875 2.65625 -1.296875q0.890625 0 1.6875 0.359375q0.796875 0.359375 1.3125 1.015625q0.515625 0.640625 0.796875 1.5625q0.296875 0.921875 0.296875 1.96875q0 2.484375 -1.234375 3.84375q-1.21875 1.359375 -2.953125 1.359375q-1.703125 0 -2.6875 -1.4375l0 1.21875zm-0.015625 -4.90625q0 1.734375 0.484375 2.515625q0.765625 1.265625 2.09375 1.265625q1.078125 0 1.859375 -0.9375q0.78125 -0.9375 0.78125 -2.78125q0 -1.890625 -0.75 -2.796875q-0.75 -0.90625 -1.828125 -0.90625q-1.0625 0 -1.859375 0.9375q-0.78125 0.9375 -0.78125 2.703125zm15.516327 1.796875l1.6875 0.203125q-0.40625 1.484375 -1.484375 2.3125q-1.078125 0.8125 -2.765625 0.8125q-2.125 0 -3.375 -1.296875q-1.234375 -1.3125 -1.234375 -3.671875q0 -2.453125 1.25 -3.796875q1.265625 -1.34375 3.265625 -1.34375q1.9375 0 3.15625 1.328125q1.234375 1.3125 1.234375 3.703125q0 0.15625 0 0.4375l-7.21875 0q0.09375 1.59375 0.90625 2.453125q0.8125 0.84375 2.015625 0.84375q0.90625 0 1.546875 -0.46875q0.640625 -0.484375 1.015625 -1.515625zm-5.390625 -2.65625l5.40625 0q-0.109375 -1.21875 -0.625 -1.828125q-0.78125 -0.953125 -2.03125 -0.953125q-1.125 0 -1.90625 0.765625q-0.765625 0.75 -0.84375 2.015625zm9.125732 5.765625l0 -9.671875l1.46875 0l0 1.46875q0.5625 -1.03125 1.03125 -1.359375q0.484375 -0.328125 1.0625 -0.328125q0.828125 0 1.6875 0.53125l-0.5625 1.515625q-0.609375 -0.359375 -1.203125 -0.359375q-0.546875 0 -0.96875 0.328125q-0.421875 0.328125 -0.609375 0.890625q-0.28125 0.875 -0.28125 1.921875l0 5.0625l-1.625 0zm5.572052 -2.890625l1.625 -0.25q0.125 0.96875 0.75 1.5q0.625 0.515625 1.75 0.515625q1.125 0 1.671875 -0.453125q0.546875 -0.46875 0.546875 -1.09375q0 -0.546875 -0.484375 -0.875q-0.328125 -0.21875 -1.671875 -0.546875q-1.8125 -0.46875 -2.515625 -0.796875q-0.6875 -0.328125 -1.046875 -0.90625q-0.359375 -0.59375 -0.359375 -1.3125q0 -0.640625 0.296875 -1.1875q0.296875 -0.5625 0.8125 -0.921875q0.375 -0.28125 1.03125 -0.46875q0.671875 -0.203125 1.421875 -0.203125q1.140625 0 2.0 0.328125q0.859375 0.328125 1.265625 0.890625q0.421875 0.5625 0.578125 1.5l-1.609375 0.21875q-0.109375 -0.75 -0.640625 -1.171875q-0.515625 -0.421875 -1.46875 -0.421875q-1.140625 0 -1.625 0.375q-0.46875 0.375 -0.46875 0.875q0 0.3125 0.1875 0.578125q0.203125 0.265625 0.640625 0.4375q0.234375 0.09375 1.4375 0.421875q1.75 0.453125 2.4375 0.75q0.6875 0.296875 1.078125 0.859375q0.390625 0.5625 0.390625 1.40625q0 0.828125 -0.484375 1.546875q-0.46875 0.71875 -1.375 1.125q-0.90625 0.390625 -2.046875 0.390625q-1.875 0 -2.875 -0.78125q-0.984375 -0.78125 -1.25 -2.328125z" fill-rule="nonzero"/></g></svg>